<svg width="18" height="19" viewBox="0 0 18 19" fill="none" xmlns="http://www.w3.org/2000/svg">
<path d="M15.9694 12.4048C16.8173 12.3959 17.5 11.7061 17.5 10.8581V3.75C17.5 2.36929 16.3807 1.25 15 1.25L7.89191 1.25C7.04395 1.25 6.35406 1.93271 6.3452 2.78062C6.3362 3.64117 7.03131 4.34359 7.89191 4.34359L8.77914 4.34359C10.0485 4.34359 10.6842 5.87831 9.78663 6.77588L1.38664 15.1759C0.782578 15.7799 0.782578 16.7593 1.38664 17.3634C1.99069 17.9674 2.97006 17.9674 3.57412 17.3634L11.9741 8.96337C12.8717 8.06579 14.4064 8.70149 14.4064 9.97086V10.8581C14.4064 11.7187 15.1088 12.4138 15.9694 12.4048Z" fill="#F2BB05" stroke="#F2BB05"/>
</svg>
