<svg width="234" height="121" viewBox="0 0 234 121" fill="none" xmlns="http://www.w3.org/2000/svg">
<g opacity="0.65">
<path d="M81.881 53.6897L81.7372 38.8349L83.567 36.8836V26.0641L78.9116 23.0292L78.9351 4.13657L72.1964 0V6.25683L73.8772 7.64955L73.8014 20.0229L63.0111 25.7263V33.9968L56.7639 37.8943L55.849 36.7199L42.3481 36.2704L28.842 36.7433L27.9297 37.9177L21.6798 34.0202V25.7263L10.8896 20.0229L10.8059 7.64955L12.4867 6.25683V0L5.748 4.13657L5.77153 23.0292L1.11614 26.0641V36.8836L2.94588 38.8349L2.80212 53.6897L0 55.3423V102.372L6.87983 106.27V82.599L8.57365 81.7571L8.70696 107.26L17.6753 112.431L17.8269 96.3443L19.5965 95.201L20.7702 96.1338L19.7246 97.5914V112.971L33.1654 121L32.8805 103.557L42.3507 109.292L51.8209 103.557L51.5386 121L64.9794 112.971V97.5914L63.9338 96.1338L65.1075 95.201L66.8797 96.3443L67.0313 112.431L75.9971 107.26L76.1304 81.7571L77.8242 82.599V106.286L84.704 102.388V55.3579L81.881 53.6897ZM74.1543 3.50258L76.9616 5.22528L76.9381 21.7482L75.7461 20.9687L75.8376 6.73492L74.1516 5.33701L74.1543 3.50258ZM64.9637 35.0855V26.9007L73.9608 22.1431L81.5935 27.119V36.1171L79.7637 38.0736L79.9023 52.5231L72.2592 48.0123L76.5408 44.7436V37.5955L79.9101 35.4753V28.4052L73.1819 24.4895L67.4156 27.6932V36.4601L62.998 38.692V42.548L58.1179 39.6638L57.9663 39.4689L64.9637 35.0855ZM6.72561 34.4022V29.5251L11.5117 26.7396L15.2914 28.8391V37.6579L19.7089 39.8899V43.7069L14.2328 46.9392L10.095 43.7822V36.5068L6.72561 34.4022ZM22.1869 44.5149L14.9385 54.2068L17.9759 58.9176L12.6043 58.5876L11.6764 56.4777L12.8343 50.0338L22.1869 44.5149ZM19.2907 60.9547L22.3882 65.7591L27.2971 67.726L30.5097 65.9072L32.0231 68.4821L31.5421 69.1629L22.6104 67.6844L16.5696 60.7806L19.2907 60.9547ZM21.7217 61.1028L27.9036 61.4822L29.5164 64.2286L27.1508 65.5616L23.7056 64.1793L21.7217 61.1028ZM17.8635 65.242L21.5936 69.5033L30.2953 70.9454L22.9032 81.4375H15.7018L10.2283 71.6547L13.7858 64.8834L17.8635 65.242ZM33.1157 70.3477L33.8189 71.543L30.1594 78.174L34.3077 85.1895L34.1038 85.5793L38.0011 87.5852L36.4223 90.989L40.866 91.94L40.2439 94.0187L29.9581 94.5384L28.1284 94.2162L22.6391 85.1999L33.1157 70.3477ZM39.2349 89.6015L40.5889 86.7252L36.7648 84.7582L37.9253 82.5574H46.7447L47.9053 84.7582L44.0837 86.7252L45.4377 89.6015L42.335 90.2693L39.2349 89.6015ZM48.2608 90.9917L46.6637 87.5982L50.5636 85.5923L50.3571 85.2025L54.5054 78.187L50.8459 71.556L51.5491 70.3607L62.0387 85.2129L56.5495 94.2292L54.7198 94.5514L44.434 94.0317L43.8119 91.953L48.2608 90.9917ZM61.7773 81.4375L54.3773 70.9454L63.0817 69.5033L66.8091 65.242L70.8869 64.8834L74.4418 71.6547L68.9709 81.4375H61.7773ZM62.0701 67.6922L53.1357 69.1707L52.6574 68.4899L54.1708 65.915L57.3833 67.7338L62.2897 65.7669L65.3872 60.9625L68.1083 60.7962L62.0701 67.6922ZM55.1615 64.2286L56.7743 61.4822L62.9562 61.1028L60.9723 64.1793L57.5271 65.5616L55.1615 64.2286ZM66.702 58.9176L69.7393 54.2068L62.4909 44.5149L71.8462 50.0338L73.0015 56.4777L72.0736 58.5876L66.702 58.9176ZM64.9716 43.7069V39.8899L69.3891 37.6579V28.8391L73.1662 26.7396L77.9523 29.5251V34.4022L74.5855 36.5198V43.7952L70.4503 46.9522L64.9716 43.7069ZM54.8478 38.6739L56.7848 41.1605L58.0917 41.94L67.345 54.2899L64.2632 59.0657L55.598 59.5854L51.4158 66.7205L50.3519 65.2082L54.5342 58.6214L58.3636 58.1979L60.5331 54.2432L53.0312 38.5933L54.8478 38.6739ZM42.335 38.2555L50.7989 38.5309L58.3087 54.1938L57.1089 56.379L53.3579 56.7948L47.9837 65.2784L50.3153 68.5861L48.5954 71.5144L52.2548 78.1402L49.2828 83.1602L47.9236 80.6008H36.7386L35.3768 83.1602L32.4152 78.1402L36.0747 71.5144L34.3547 68.5861L36.6837 65.2784L31.3095 56.7948L27.5585 56.379L26.3588 54.1938L33.8685 38.5309L42.335 38.2555ZM29.8248 38.6739L31.6546 38.6115L24.1552 54.264L26.3248 58.2186L30.1489 58.6318L34.3312 65.2186L33.2647 66.736L29.0825 59.601L20.4173 59.0813L17.3407 54.2899L26.5835 41.9296L27.8905 41.1501L29.8248 38.6739ZM10.5184 3.50258V5.33961L8.82982 6.73752L8.92391 20.9713L7.72935 21.7508L7.71106 5.22788L10.5184 3.50258ZM3.07658 27.119L10.7092 22.1431L19.7089 26.9007V35.0855L26.7116 39.4689L26.5626 39.6638L21.672 42.548V38.692L17.2571 36.4601V27.6932L11.4882 24.4895L4.75994 28.4052V35.4753L8.12928 37.5955V44.7436L12.4109 48.0123L4.76517 52.5231L4.90632 38.0736L3.07658 36.1171V27.119ZM21.672 111.867V98.2177L23.4416 95.7674L19.6933 92.7923L15.8482 95.2789L15.7201 109.05L10.6465 106.124L10.5001 78.5975L4.9011 81.3907V102.921L1.9526 101.245V56.4544L10.5994 51.3512L9.63752 56.7168L11.2843 60.4662L13.8198 60.6195L16.0024 63.1165L12.6487 62.8229L7.99598 71.6729L14.5438 83.3915H21.523L20.2971 85.1324L26.8946 95.9987L28.9308 96.3546L29.0615 101.216L30.8913 102.469L31.1344 117.513L21.672 111.867ZM42.335 107.01L30.9985 100.146L30.8991 96.4664L41.726 95.9233L42.335 93.8862L42.9571 95.9155L53.784 96.4586L53.6742 100.138L42.335 107.01ZM82.7174 101.253L79.7689 102.928V81.3907L74.1621 78.6053L74.0157 106.132L68.9421 109.058L68.814 95.2867L64.9689 92.8001L61.2284 95.7674L62.998 98.2177V111.867L53.5435 117.513L53.7892 102.469L55.619 101.216L55.7497 96.3546L57.7859 95.9987L64.386 85.1324L63.1575 83.3915H70.1367L76.6767 71.6729L72.0239 62.8125L68.6702 63.1061L70.8555 60.6091L73.3884 60.4558L75.0351 56.7064L74.0628 51.3512L82.7096 56.4544L82.7174 101.253Z" fill="#F0F0C9"/>
<path d="M105.05 84.4776V50.9589H107.403V82.2768H123.478V84.4776H105.05Z" fill="#F0F0C9"/>
<path d="M195.175 84.4776H192.799L172.826 54.7213H172.644C172.826 58.2654 172.918 60.94 172.918 62.745V84.4776H170.66V50.9589H173.012L192.962 80.6684H193.097C192.962 77.9193 192.893 75.3063 192.891 72.8292V50.9615H195.175V84.4776Z" fill="#F0F0C9"/>
<path d="M233.867 84.4776H231.169L221.205 68.8433L211.058 84.4776H208.444L219.791 67.0089L209.481 50.9614H212.135L221.244 65.3121L230.497 50.9614H233.009L222.554 66.9621L233.867 84.4776Z" fill="#F0F0C9"/>
<path d="M107.413 104.152H105.061V89.7912H113.211V91.7738H107.413V96.2611H112.855V98.2566H107.413V104.152Z" fill="#F0F0C9"/>
<path d="M123.907 98.4125V104.152H121.554V89.7912H125.627C127.49 89.7912 128.87 90.1376 129.767 90.8305C130.665 91.5234 131.113 92.5714 131.111 93.9746C131.111 95.7622 130.175 97.0354 128.304 97.7941L132.384 104.152H129.697L126.239 98.4151L123.907 98.4125ZM123.907 96.469H125.549C126.646 96.469 127.443 96.2663 127.938 95.861C128.433 95.4556 128.68 94.8493 128.68 94.0421C128.68 93.2314 128.419 92.6468 127.88 92.2934C127.342 91.94 126.542 91.7738 125.467 91.7738H123.899L123.907 96.469Z" fill="#F0F0C9"/>
<path d="M148.546 104.152H140.375V89.7912H148.546V91.7738H142.735V95.6713H148.18V97.6564H142.735V102.165H148.546V104.152Z" fill="#F0F0C9"/>
<path d="M165.544 104.152H157.373V89.7912H165.544V91.7738H159.733V95.6713H165.178V97.6564H159.733V102.165H165.544V104.152Z" fill="#F0F0C9"/>
<path d="M176.734 98.4125V104.152H174.382V89.7912H178.462C180.327 89.7912 181.707 90.1376 182.603 90.8305C183.498 91.5234 183.946 92.5714 183.946 93.9746C183.946 95.7622 183.011 97.0354 181.141 97.7941L185.211 104.152H182.524L179.066 98.4151L176.734 98.4125ZM176.734 96.469H178.373C179.473 96.469 180.27 96.2663 180.765 95.861C181.26 95.4556 181.506 94.8493 181.505 94.0421C181.505 93.2314 181.243 92.6468 180.705 92.2934C180.166 91.94 179.369 91.7738 178.295 91.7738H176.726L176.734 96.469Z" fill="#F0F0C9"/>
<path d="M193.199 104.152V89.7912H195.552V104.152H193.199Z" fill="#F0F0C9"/>
<path d="M216.829 96.8327C216.829 99.2024 216.167 101.014 214.843 102.268C213.518 103.523 211.611 104.151 209.121 104.152H205.082V89.7912H209.547C211.845 89.7912 213.633 90.4062 214.911 91.636C216.188 92.8659 216.827 94.5982 216.829 96.8327ZM214.338 96.9107C214.338 93.4722 212.721 91.7538 209.487 91.7556H207.443V102.175H209.121C212.601 102.175 214.34 100.42 214.338 96.9107Z" fill="#F0F0C9"/>
<path d="M233.997 104.152H225.826V89.7912H233.997V91.7738H228.187V95.6713H233.634V97.6564H228.189V102.165H234L233.997 104.152Z" fill="#F0F0C9"/>
<path d="M158.784 46.9808L163.385 38.5439H160.821L156.267 46.9808H158.784Z" fill="#F0F0C9"/>
<path d="M154.119 50.9614L144.22 69.3006L134.42 50.9614H131.704L142.973 71.7093V84.4776H145.396V71.5248L156.612 50.9614H154.119Z" fill="#F0F0C9"/>
<path d="M132.292 46.9808L127.786 38.5439H124.958L129.54 46.9808H132.292Z" fill="#F0F0C9"/>
</g>
</svg>
