<svg width="61" height="88" viewBox="0 0 61 88" fill="none" xmlns="http://www.w3.org/2000/svg">
<path d="M58.8853 39.0081L58.7819 28.2154L60.0978 26.7977V18.9368L56.7499 16.7318L56.7668 3.00542L51.9206 0V4.54588L53.1293 5.55776L53.0748 14.5476L45.3149 18.6914V24.7003L40.8222 27.532L40.1642 26.6787L30.455 26.3521L20.7419 26.6957L20.0859 27.549L15.5912 24.7173V18.6914L7.83133 14.5476L7.77117 5.55776L8.9799 4.54588V0L4.13373 3.00542L4.15065 16.7318L0.80268 18.9368V26.7977L2.11854 28.2154L2.01516 39.0081L0 40.2088V74.3784L4.94767 77.2101V60.0121L6.16581 59.4004L6.26169 77.9294L12.7113 81.6862L12.8204 69.9987L14.093 69.168L14.937 69.8457L14.1851 70.9048V82.0788L23.8511 87.9122L23.6462 75.2393L30.4568 79.4057L37.2674 75.2393L37.0644 87.9122L46.7304 82.0788V70.9048L45.9785 69.8457L46.8225 69.168L48.0971 69.9987L48.2061 81.6862L54.6539 77.9294L54.7497 59.4004L55.9679 60.0121V77.2215L60.9156 74.3897V40.2201L58.8853 39.0081ZM53.3286 2.54479L55.3475 3.79642L55.3306 15.8011L54.4734 15.2347L54.5392 4.89324L53.3267 3.87759L53.3286 2.54479ZM46.7191 25.4913V19.5446L53.1895 16.088L58.6786 19.7032V26.2408L57.3627 27.6623L57.4623 38.1605L51.9657 34.8832L55.0449 32.5083V27.3149L57.468 25.7745V20.6377L52.6293 17.7927L48.4824 20.1204V26.49L45.3055 28.1116V30.9131L41.7959 28.8176L41.6869 28.6761L46.7191 25.4913ZM4.83678 24.9948V21.4513L8.27872 19.4276L10.9969 20.953V27.3602L14.1738 28.9819V31.7551L10.2356 34.1036L7.25987 31.8098V26.5239L4.83678 24.9948ZM15.9559 32.3422L10.7432 39.3838L12.9275 42.8064L9.06448 42.5667L8.39715 41.0338L9.22992 36.352L15.9559 32.3422ZM13.8731 44.2865L16.1006 47.7771L19.6309 49.2062L21.9413 47.8847L23.0297 49.7555L22.6838 50.2501L16.2604 49.1759L11.9162 44.16L13.8731 44.2865ZM15.6213 44.3941L20.0671 44.6697L21.2269 46.6651L19.5257 47.6336L17.0481 46.6293L15.6213 44.3941ZM12.8467 47.4014L15.5292 50.4974L21.7871 51.5452L16.471 59.1682H11.2921L7.35574 52.0605L9.91417 47.1409L12.8467 47.4014ZM23.8154 51.111L24.3211 51.9794L21.6894 56.7971L24.6726 61.8942L24.526 62.1774L27.3288 63.6348L26.1934 66.1078L29.3891 66.7988L28.9417 68.309L21.5446 68.6866L20.2287 68.4525L16.2811 61.9018L23.8154 51.111ZM28.2161 65.0997L29.1898 63.0099L26.4397 61.5808L27.2743 59.9819H33.6168L34.4514 61.5808L31.7032 63.0099L32.6769 65.0997L30.4455 65.5849L28.2161 65.0997ZM34.7071 66.1097L33.5585 63.6442L36.3632 62.1868L36.2147 61.9037L39.198 56.8065L36.5662 51.9888L37.0719 51.1204L44.6156 61.9112L40.668 68.462L39.3521 68.696L31.955 68.3185L31.5077 66.8082L34.7071 66.1097ZM44.4276 59.1682L39.1059 51.5452L45.3657 50.4974L48.0463 47.4014L50.9788 47.1409L53.5354 52.0605L49.6009 59.1682H44.4276ZM44.6382 49.1816L38.213 50.2558L37.8689 49.7612L38.9574 47.8903L41.2677 49.2118L44.7961 47.7827L47.0237 44.2921L48.9806 44.1713L44.6382 49.1816ZM39.6698 46.6651L40.8297 44.6697L45.2754 44.3941L43.8487 46.6293L41.3711 47.6336L39.6698 46.6651ZM47.9692 42.8064L50.1536 39.3838L44.9408 32.3422L51.6687 36.352L52.4996 41.0338L51.8323 42.5667L47.9692 42.8064ZM46.7248 31.7551V28.9819L49.9017 27.3602V20.953L52.618 19.4276L56.06 21.4513V24.9948L53.6388 26.5334V31.8193L50.6649 34.113L46.7248 31.7551ZM39.4442 28.0984L40.8372 29.905L41.7771 30.4714L48.4317 39.4442L46.2154 42.914L39.9838 43.2916L36.976 48.4756L36.2109 47.3769L39.2187 42.5912L41.9726 42.2835L43.5328 39.4102L38.1378 28.0399L39.4442 28.0984ZM30.4455 27.7944L36.5324 27.9946L41.9331 39.3744L41.0703 40.962L38.3727 41.2641L34.5078 47.4278L36.1846 49.831L34.9477 51.9586L37.5795 56.7726L35.4421 60.4198L34.4646 58.5603H26.4209L25.4415 60.4198L23.3116 56.7726L25.9434 51.9586L24.7065 49.831L26.3814 47.4278L22.5165 41.2641L19.8189 40.962L18.9561 39.3744L24.3568 27.9946L30.4455 27.7944ZM21.4487 28.0984L22.7646 28.0531L17.3714 39.4253L18.9316 42.2986L21.6818 42.5988L24.6895 47.3844L23.9226 48.4869L20.9149 43.3029L14.6833 42.9254L12.4707 39.4442L19.1178 30.4638L20.0577 29.8975L21.4487 28.0984ZM7.56438 2.54479V3.87948L6.35002 4.89513L6.41771 15.2366L5.55863 15.803L5.54547 3.7983L7.56438 2.54479ZM2.21254 19.7032L7.70161 16.088L14.1738 19.5446V25.4913L19.2099 28.6761L19.1027 28.8176L15.5856 30.9131V28.1116L12.4106 26.49V20.1204L8.2618 17.7927L3.42314 20.6377V25.7745L5.84623 27.3149V32.5083L8.92538 34.8832L3.4269 38.1605L3.52843 27.6623L2.21254 26.2408V19.7032ZM15.5856 81.2765V71.3598L16.8582 69.5796L14.1625 67.418L11.3974 69.2247L11.3052 79.2301L7.6565 77.1044L7.55124 57.1048L3.52465 59.1342V74.7767L1.40423 73.5591V41.0168L7.62266 37.3091L6.93089 41.2074L8.11516 43.9316L9.9386 44.0429L11.5082 45.8572L9.09645 45.6438L5.75035 52.0738L10.4593 60.5878H15.4784L14.5968 61.8527L19.3414 69.7476L20.8059 70.0062L20.8998 73.5383L22.2157 74.4483L22.3905 85.3788L15.5856 81.2765ZM30.4455 77.7482L22.2928 72.7605L22.2213 70.0874L30.0076 69.6928L30.4455 68.2128L30.8929 69.6871L38.6792 70.0817L38.6002 72.7549L30.4455 77.7482ZM59.4869 73.5648L57.3664 74.7824V59.1342L53.3342 57.1105L53.229 77.1101L49.5802 79.2358L49.4881 69.2303L46.7229 67.4237L44.0329 69.5796L45.3055 71.3598V81.2765L38.5062 85.3788L38.6829 74.4483L39.9988 73.5383L40.0928 70.0062L41.5572 69.7476L46.3037 61.8527L45.4202 60.5878H50.4393L55.1426 52.0738L51.7965 45.6363L49.3847 45.8496L50.9563 44.0354L52.7778 43.924L53.9621 41.1999L53.2628 37.3091L59.4812 41.0168L59.4869 73.5648Z" fill="white"/>
</svg>
