<svg width="131" height="74" viewBox="0 0 131 74" fill="none" xmlns="http://www.w3.org/2000/svg">
<mask id="path-1-inside-1_1785_357" fill="white">
<path d="M103.647 47.4052C104.915 47.3972 105.049 47.2823 105.153 46.0318C105.181 45.6862 105.159 45.3299 105.116 44.9843C105.017 44.1772 104.622 43.4189 104.724 42.5772C104.907 41.0499 104.23 40.0176 102.943 39.2634C99.3969 37.1833 96.4844 34.2977 93.4308 31.5942C90.8106 29.2741 88.2507 26.8764 85.2164 25.0912C83.7793 24.2458 82.311 23.5535 80.5579 23.5678C75.0905 23.6133 69.6217 23.5846 64.1537 23.5846V23.6088C62.5248 23.6088 60.8959 23.5955 59.2673 23.6111C54.5573 23.6574 49.8458 23.4984 45.1364 23.7159C44.3012 23.7545 43.7349 23.9552 43.6705 24.9242C43.5384 26.9075 43.3638 28.8878 43.2098 30.8698C42.8717 35.2205 42.8039 39.5792 42.834 43.9408C42.8382 44.5342 42.8089 45.0784 42.3474 45.5588C42.0025 45.9182 42.0619 46.4526 42.2357 46.8921C42.396 47.2972 42.8221 47.1989 43.1602 47.1999C44.9636 47.206 46.7674 47.1771 48.5701 47.2159C49.2885 47.2316 49.5877 46.9716 49.7383 46.2588C50.2798 43.6954 52.3019 42.12 54.9572 42.1096C57.7121 42.0987 59.8685 43.6811 60.3864 46.2415C60.5565 47.0835 60.9189 47.2518 61.6706 47.2449C64.5496 47.2183 67.4286 47.234 70.3089 47.2515C76.2404 47.2878 82.172 47.3326 88.1039 47.3858C88.7129 47.3913 89.0547 47.231 89.1918 46.5558C89.7343 43.8642 92.0029 42.1035 94.7948 42.1426C97.5079 42.1798 99.8048 44.0405 100.268 46.6499C100.377 47.2669 100.668 47.4187 101.204 47.4102C102.018 47.3951 102.833 47.4102 103.647 47.4052ZM66.609 30.4436C66.5863 31.9353 66.6133 33.4276 66.5993 34.9193C66.5903 35.8867 66.3879 36.0821 65.389 36.0851C62.3663 36.0936 59.3436 36.088 56.3209 36.088V36.0768C53.3275 36.0768 50.334 36.0761 47.3405 36.0747C46.1932 36.0726 45.9206 35.8274 45.9097 34.7103C45.896 33.2774 45.9322 31.8441 45.9362 30.4109C45.9388 29.6535 46.2845 29.2879 47.0534 29.2882C53.186 29.2919 59.3184 29.2887 65.4508 29.2786C66.2487 29.2776 66.6214 29.6216 66.609 30.4436ZM80.0173 35.3986C80.0244 35.8506 79.6739 36.0074 79.2613 36.1013C78.3567 36.3068 77.4634 36.0856 76.5656 36.0867C74.0342 36.0893 71.5027 36.0881 68.9711 36.0829C67.8486 36.0789 67.7059 35.9314 67.6996 34.8169C67.6913 33.3813 67.6907 31.9462 67.6978 30.5117C67.7038 29.4831 67.8885 29.2983 68.9392 29.2914C70.5976 29.2802 72.2564 29.2885 73.9148 29.2887C75.6024 29.2887 77.2901 29.3026 78.9777 29.2829C79.7003 29.2744 80.0305 29.5971 80.1031 30.3112C80.2756 32.0116 79.9914 33.7017 80.0173 35.3986ZM96.2393 36.897C96.0985 37.1937 95.7808 37.0831 95.532 37.0642C92.087 36.7918 88.6422 36.5148 85.1976 36.2331C83.3163 36.0776 82.8643 35.5831 82.7148 33.6676C82.6382 32.6776 82.4811 31.6937 82.3979 30.7039C82.311 29.6649 82.6356 29.3215 83.6768 29.2927C84.316 29.2757 84.956 29.2896 85.5954 29.2896C87.8141 28.907 89.4985 29.7133 90.9887 31.4023C92.5087 33.1256 94.2639 34.6386 95.9104 36.2494C96.0898 36.4235 96.3835 36.5942 96.2393 36.897Z"/>
<path d="M6.30834 59.2575C4.79876 59.2634 3.28917 59.2539 1.77959 59.2291C1.1256 59.2192 0.934369 59.5497 0.937539 60.1596C0.942029 60.8981 1.40716 60.9571 1.9341 60.9055C2.81867 60.8173 3.10102 61.1961 3.0651 62.0703C3.00461 63.529 3.04846 64.992 3.05031 66.4532C3.05031 68.002 3.06563 69.5512 3.04265 71.0998C3.03367 71.7224 3.25554 71.992 3.89764 72.0186C4.67708 72.0513 4.9111 71.7048 4.90608 70.9737C4.88627 68.1097 4.89684 65.2456 4.90106 62.3816C4.90344 60.9784 4.90793 60.9577 6.26212 60.9329C6.83845 60.9226 7.11605 60.7386 7.11658 60.1207C7.11711 59.5367 6.91373 59.2551 6.30834 59.2575Z"/>
<path d="M14.4512 65.7316C14.4512 63.8887 14.4279 62.045 14.4623 60.2018C14.4765 59.4348 14.1213 59.2745 13.4485 59.2695C12.7431 59.2642 12.4449 59.4989 12.4686 60.2356C12.5072 61.4338 12.4364 62.6363 12.4906 63.8331C12.5281 64.6618 12.1815 64.9516 11.4163 64.882C11.2715 64.8681 11.1256 64.8681 10.9808 64.882C10.316 64.9487 10.041 64.6873 10.0651 63.9826C10.1086 62.6969 10.0524 61.408 10.0841 60.1215C10.1026 59.3684 9.69104 59.2708 9.08724 59.2674C8.46733 59.2634 8.10152 59.4019 8.10548 60.1388C8.12608 63.8253 8.12705 67.5119 8.10838 71.1984C8.10336 72.2522 8.88941 72.026 9.46627 72.0959C10.1652 72.1805 10.0698 71.6256 10.0738 71.201C10.0835 69.9725 10.1197 68.7416 10.0629 67.5158C10.0265 66.7251 10.3213 66.5055 11.0709 66.5297C12.4512 66.5757 12.4758 66.5613 12.4776 67.9552C12.4792 69.0375 12.5069 70.1209 12.4689 71.2021C12.4425 71.9255 12.7209 72.1789 13.4367 72.1858C14.1812 72.1922 14.4816 71.9505 14.4649 71.1734C14.4258 69.36 14.4522 67.5455 14.4512 65.7316Z"/>
<path d="M20.6492 70.529C20.3608 70.5555 20.0681 70.5399 19.7776 70.529C18.1043 70.4707 17.9844 70.9049 17.9942 68.6879C18.0032 66.6249 17.9942 66.6116 19.9908 66.5672C20.5835 66.5542 20.9134 66.401 20.9131 65.7205C20.9128 65.0399 20.5753 64.8572 19.9855 64.8811C19.608 64.8963 19.2287 64.8649 18.8513 64.8793C18.2589 64.9016 17.9998 64.6118 18.0042 64.0333C18.0095 63.3309 18.0159 62.628 18.0042 61.9256C17.9926 61.2804 18.3035 61.0425 18.9226 61.0821C19.4443 61.1158 19.9694 61.0903 20.4929 61.097C21.0668 61.1044 21.6051 61.1445 21.613 60.2818C21.6212 59.3798 21.0544 59.4013 20.4472 59.3992C19.285 59.3947 18.117 59.4378 16.9583 59.3607C16.2525 59.3139 16.1078 59.6018 16.1131 60.2114C16.1316 62.0267 16.1197 63.8419 16.1192 65.6572C16.1186 67.4724 16.1442 69.2882 16.1075 71.1027C16.0917 71.8832 16.3392 72.2233 17.1556 72.1959C18.3178 72.1571 19.482 72.203 20.6453 72.2248C21.163 72.2347 21.6247 72.2865 21.6186 71.4993C21.6125 70.781 21.3724 70.4622 20.6492 70.529Z"/>
<path d="M37.8752 70.677C37.614 70.6824 37.3522 70.6563 37.0908 70.6539C34.9693 70.634 35.2455 70.7055 35.2329 68.7217C35.2202 66.7379 35.2292 66.7278 37.221 66.5962C37.7947 66.5587 38.0662 66.337 38.0696 65.7425C38.0731 65.148 37.8227 64.8787 37.2331 64.8984C36.8269 64.912 36.4193 64.883 36.0128 64.8947C35.4582 64.9104 35.2241 64.6451 35.2334 64.0971C35.2463 63.3368 35.249 62.5756 35.2289 61.8156C35.2152 61.2868 35.4463 61.0786 35.9613 61.0938C36.6293 61.1134 37.2986 61.0802 37.9666 61.1007C38.5546 61.1185 38.8984 60.9585 38.8961 60.2699C38.8937 59.5991 38.5662 59.4035 37.9772 59.4032C36.6695 59.4032 35.3594 59.4298 34.0551 59.3575C33.3969 59.3202 33.2466 59.5702 33.2516 60.1508C33.2683 62.0229 33.2577 63.8954 33.2559 65.7675C33.2559 67.5814 33.2527 69.3951 33.2572 71.209C33.2598 72.2884 33.3031 72.3277 34.4072 72.3341C35.5406 72.3408 36.6742 72.3322 37.8076 72.3501C38.404 72.3594 38.9069 72.3596 38.899 71.5124C38.8921 70.7414 38.4534 70.6653 37.8752 70.677Z"/>
<path d="M40.003 31.9454C40.1491 29.699 40.3419 27.4554 40.4737 25.2081C40.6494 22.2082 42.1723 20.6445 45.1522 20.5392C46.5754 20.4889 48.0017 20.5307 49.4264 20.5307V20.5137C50.9388 20.5137 52.4512 20.4977 53.9631 20.5211C54.6023 20.5309 54.8989 20.2688 55.0214 19.6345C55.3878 17.7427 55.4065 15.8514 55.0589 13.9646C53.528 5.65478 45.8345 -0.0103226 37.5126 0.949945C28.9981 1.93361 22.8405 9.3576 23.0599 17.4305C23.2826 25.6221 30.2104 32.8855 39.0699 32.8087C39.6953 32.8031 39.9626 32.5646 40.003 31.9454Z"/>
<path d="M45.2822 59.4508C43.6844 59.4572 42.0866 59.4516 40.4888 59.434C39.8755 59.4274 39.694 59.7366 39.6853 60.3084C39.6731 61.09 40.1607 61.1108 40.727 61.1214C41.8406 61.1424 41.9095 61.2142 41.918 62.3273C41.9291 63.7895 41.9206 65.2517 41.9225 66.7139C41.9225 68.2346 41.933 69.7553 41.9177 71.276C41.9108 71.9449 42.0352 72.4024 42.8599 72.4088C43.6787 72.4152 43.816 71.988 43.8107 71.301C43.7936 68.4646 43.7973 65.6279 43.8073 62.7913C43.812 61.4258 43.6023 61.1031 45.2674 61.1398C45.8791 61.1531 46.0637 60.8221 46.0585 60.2523C46.0545 59.7007 45.8398 59.4487 45.2822 59.4508Z"/>
<path d="M51.887 59.455C50.4058 59.4758 48.9235 59.4816 47.4428 59.4439C46.695 59.4247 46.4713 59.7555 46.5157 60.4525C46.5545 61.064 46.9311 61.1273 47.4068 61.1565C48.7299 61.2381 48.7315 61.2472 48.7338 62.5847C48.7365 64.0175 48.7365 65.4503 48.7338 66.883H48.7383C48.7383 68.462 48.7468 70.0411 48.7338 71.62C48.7288 72.2336 48.961 72.5091 49.6055 72.5325C50.3508 72.559 50.6575 72.2988 50.6522 71.5304C50.6313 68.5186 50.6416 65.5067 50.6503 62.4951C50.6535 61.3025 50.6768 61.2735 51.8756 61.27C52.4691 61.2684 52.8936 61.1935 52.8902 60.4326C52.8883 59.7076 52.5803 59.4455 51.887 59.455Z"/>
<path d="M55.0914 50.945C57.2438 50.9628 58.9741 49.305 58.9477 47.2475C58.9229 45.2353 57.2324 43.6457 55.093 43.6231C52.9232 43.6 51.2589 45.135 51.233 47.1829C51.2058 49.3191 52.8545 50.9275 55.0914 50.945Z"/>
<path d="M58.7494 70.8849C58.4588 70.8969 58.1683 70.8871 57.8777 70.8849C55.7911 70.8639 56.0114 71.1106 56.0005 69.0146C55.99 66.9798 55.9982 66.9798 57.9612 66.8937C58.019 66.891 58.0774 66.8891 58.1355 66.8897C58.6638 66.8942 58.8413 66.5924 58.8458 66.1054C58.8505 65.6059 58.7208 65.2719 58.1434 65.2015C57.4435 65.1162 56.4794 65.4205 56.1181 64.8186C55.7924 64.2755 56.0145 63.399 55.9995 62.6692C55.9947 62.4355 56.0103 62.2013 56.0053 61.9674C55.9947 61.4864 56.2377 61.2793 56.7002 61.2831C57.4266 61.2886 58.1529 61.2791 58.8796 61.2892C59.4229 61.2969 59.6638 61.0592 59.6685 60.4961C59.6733 59.9269 59.5037 59.6076 58.883 59.6092C57.5756 59.6127 56.2681 59.6063 54.9604 59.572C54.2407 59.5534 53.9884 59.8761 53.9987 60.5788C54.0251 62.3919 54.0074 64.2059 54.009 66.0193C54.009 67.8914 54.0191 69.7636 54.0035 71.6354C53.9982 72.2408 54.1995 72.5659 54.85 72.5736C56.1564 72.5915 57.4625 72.6351 58.7678 72.692C59.3809 72.7185 59.6759 72.5136 59.6733 71.8449C59.6706 71.1763 59.4208 70.8568 58.7494 70.8849Z"/>
<path d="M76.1605 59.8012C74.5316 59.8068 72.9024 59.7791 71.2741 59.7929C70.5345 59.7991 70.1581 60.477 70.5055 61.1318C70.7538 61.5994 71.2186 61.4793 71.6008 61.4551C72.4254 61.4019 72.7455 61.7254 72.7189 62.5717C72.6708 64.0926 72.7054 65.6162 72.7067 67.1385C72.7067 68.6903 72.7305 70.2426 72.6964 71.7936C72.68 72.538 72.8583 72.9352 73.7057 72.9381C74.5702 72.9411 74.7051 72.5114 74.7001 71.7833C74.6785 68.7094 74.7091 65.6348 74.68 62.561C74.6729 61.8166 74.9159 61.4556 75.6726 61.5011C75.8462 61.5117 76.0215 61.4856 76.1959 61.4891C76.8258 61.5013 76.9669 61.1304 76.964 60.5783C76.9611 60.0093 76.7004 59.7993 76.1605 59.8012Z"/>
<path d="M94.8418 51.2396C97.009 51.213 98.6743 49.5323 98.6571 47.3892C98.64 45.2746 96.972 43.7568 94.6706 43.7614C92.4316 43.7659 90.6773 45.3977 90.7087 47.4456C90.7438 49.5222 92.6427 51.2664 94.8418 51.2396Z"/>
<path d="M100.245 60.0633C99.7697 59.6723 98.6244 60.0997 98.5224 60.7189C98.1659 62.8801 97.8436 65.0468 97.4939 67.209C97.3238 68.2604 97.2607 69.3358 96.9506 70.3583L96.7237 70.3317C96.5972 69.5586 96.4651 68.7863 96.3457 68.0121C95.976 65.616 95.6215 63.2177 95.2364 60.8239C95.1075 60.0211 94.6131 59.7871 93.6516 59.995C92.9364 60.1495 93.1625 60.6663 93.2333 61.1097C93.7668 64.4558 94.3039 67.8012 94.8444 71.146C95.2142 73.4196 95.219 73.4087 97.5404 73.2785C98.0871 73.2479 98.3838 73.0658 98.4691 72.4766C98.6999 70.8871 98.9807 69.305 99.2401 67.7197C99.6077 65.4711 99.9823 63.2235 100.33 60.972C100.378 60.678 100.548 60.3122 100.245 60.0633Z"/>
<path d="M104.518 61.8275C105.186 61.8336 105.854 61.8097 106.522 61.8238C107.113 61.836 107.54 61.7403 107.539 60.9818C107.539 60.2518 107.155 60.0981 106.545 60.0987C105.267 60.0987 103.984 60.1386 102.713 60.0357C101.928 59.9721 101.667 60.1888 101.681 60.9691C101.714 62.8692 101.692 64.7708 101.692 66.6709C101.692 68.6007 101.709 70.5306 101.683 72.4601C101.674 73.1328 101.918 73.4138 102.598 73.4029C103.963 73.3811 105.328 73.3989 106.694 73.4177C107.277 73.426 107.537 73.1833 107.535 72.5811C107.533 72.0034 107.322 71.7128 106.724 71.7001C105.999 71.6846 105.275 71.5937 104.551 71.5961C103.967 71.5974 103.689 71.3792 103.698 70.7781C103.711 69.9598 103.709 69.1412 103.693 68.3224C103.68 67.7167 103.979 67.4674 104.547 67.495C105.011 67.5177 105.474 67.5493 105.937 67.5897C106.57 67.645 106.83 67.3741 106.818 66.7251C106.807 66.1378 106.675 65.7553 105.996 65.7773C105.503 65.793 105.009 65.7571 104.515 65.7593C103.985 65.7614 103.698 65.5296 103.701 64.9739C103.705 64.1847 103.705 63.3953 103.701 62.6057C103.697 62.0455 103.988 61.8219 104.518 61.8275Z"/>
<path d="M114.119 71.7562C113.626 71.7657 113.132 71.754 112.639 71.7524C111.176 71.7479 111.175 71.7482 111.173 70.3192C111.172 68.8581 111.171 67.397 111.171 65.9361C111.171 64.2705 111.155 62.6046 111.177 60.938C111.188 60.1548 110.702 60.12 110.136 60.1359C109.613 60.1505 109.035 60.0561 109.036 60.8734C109.04 64.8181 109.04 68.763 109.036 72.7079C109.036 73.1678 109.243 73.4241 109.71 73.4374C111.189 73.4793 112.668 73.5197 114.146 73.5586C114.757 73.5754 114.841 73.1865 114.843 72.6901C114.846 72.1712 114.785 71.7439 114.119 71.7562Z"/>
<path d="M123.026 71.0561C122.752 72.5675 121.818 73.363 120.472 73.283C119.023 73.1968 118.044 72.2613 118.011 70.7286C117.955 68.0967 117.955 65.4638 118.011 62.8301C118.042 61.3147 118.931 60.4374 120.311 60.3589C121.813 60.2723 122.715 60.9733 123.016 62.4975C123.121 63.0337 123.167 63.5822 123.24 64.1248C123.461 63.407 123.417 62.7179 123.213 62.0365C122.86 60.8473 122.018 60.188 120.788 60.1436C118.787 60.0729 117.784 60.9502 117.738 62.984C117.679 65.4985 117.716 68.0156 117.725 70.5314C117.728 70.8531 117.769 71.1732 117.848 71.485C118.162 72.7459 119.226 73.5496 120.547 73.5469C121.904 73.5443 122.848 72.8501 123.229 71.5916C123.462 70.8206 123.42 70.0411 123.218 69.2459C123.155 69.85 123.133 70.4609 123.026 71.0561Z"/>
<path d="M83.4074 66.3768C84.7708 65.0848 84.5418 63.4668 84.2914 61.865C84.1295 60.83 83.4623 60.2279 82.4578 59.9852C81.222 59.6863 79.9669 59.8456 78.7199 59.8203C78.2138 59.81 78.1066 60.1742 78.1063 60.5972C78.1063 64.4919 78.1053 68.3867 78.1031 72.2815C78.1016 73.0849 78.6438 73.0296 79.1837 73.0525C79.7801 73.0769 80.1367 72.8998 80.1082 72.2193C80.0817 71.6054 80.1026 70.9894 80.1026 70.3745H80.1071C80.1071 69.7595 80.1071 69.1445 80.1071 68.5295C80.1071 68.471 80.1137 68.4122 80.1111 68.354C80.0846 67.7718 80.3963 67.5891 80.9299 67.6131C81.9193 67.6575 82.3612 68.1849 82.4159 69.4879C82.4552 70.4237 82.4423 71.3616 82.4758 72.2977C82.512 73.2758 83.2642 73.0155 83.8353 73.0687C84.5014 73.1295 84.4916 72.7135 84.4761 72.2264C84.4462 71.2901 84.4832 70.3516 84.4496 69.4156C84.4172 68.4952 84.2695 67.6016 83.5017 66.9596C83.3044 66.7932 83.1633 66.6071 83.4074 66.3768ZM82.2917 64.9534C82.1179 65.6564 81.115 66.1001 80.4544 65.8212C80.1486 65.692 80.1192 65.4437 80.1155 65.176C80.1087 64.6788 80.1137 64.1811 80.1137 63.6837H80.1066C80.1066 63.362 80.0878 63.0388 80.1111 62.7184C80.1446 62.2574 79.9513 61.6531 80.745 61.6228C81.4552 61.5962 82.1121 61.6555 82.3094 62.5172C82.496 63.3191 82.49 64.1543 82.2917 64.9534Z"/>
<path d="M30.735 65.0901C31.8863 64.1352 31.6317 62.8245 31.5757 61.5893C31.5229 60.4196 30.8951 59.7398 29.7546 59.4332C28.7245 59.1562 27.6724 59.3463 26.6344 59.2679C25.847 59.2086 25.5401 59.4968 25.5607 60.3154C25.6056 62.0966 25.5747 63.8805 25.5739 65.6633C25.5739 67.5338 25.5877 69.4047 25.5663 71.2747C25.5591 71.9021 25.7879 72.1935 26.4279 72.1805C27.4434 72.1594 28.4617 72.2007 29.4756 72.1616C30.422 72.1254 31.1307 71.6333 31.5636 70.7951C32.3103 69.3491 31.9426 66.8384 30.8198 65.6487C30.6389 65.457 30.4643 65.3148 30.735 65.0901ZM28.1027 61.0143C28.7649 60.9686 29.4014 61.0276 29.628 61.8307C29.8061 62.4624 29.8182 63.1044 29.6452 63.7303C29.4505 64.4361 28.5446 64.8221 27.8798 64.5509C27.6077 64.4398 27.5562 64.2404 27.5509 64.0009C27.5425 63.5931 27.5488 63.185 27.5488 62.778H27.5377C27.5377 62.5448 27.5243 62.3106 27.5406 62.0788C27.5721 61.6414 27.3874 61.0637 28.1027 61.0143ZM28.22 70.5159C27.7641 70.4628 27.5396 70.2594 27.5433 69.7904C27.5491 69.0311 27.5034 68.2692 27.552 67.5134C27.5784 67.0938 27.2372 66.4574 28.0692 66.3633C29.0309 66.2543 29.6803 66.576 29.8526 67.3485C29.94 67.7423 29.922 68.1599 29.9519 68.5664C29.9255 70.1767 29.487 70.6659 28.22 70.5159Z"/>
<path d="M67.3684 69.0699C67.3607 68.1679 67.2128 67.3193 66.4767 66.6919C66.2884 66.5324 66.1225 66.3378 66.3845 66.1144C67.5874 65.0904 67.3716 63.6904 67.3409 62.3619C67.3018 60.6681 66.3547 59.7222 64.6664 59.6414C63.8251 59.6013 62.9786 59.6651 62.1389 59.6127C61.3571 59.5638 61.1175 59.9123 61.1276 60.6469C61.154 62.4895 61.1363 64.3327 61.1368 66.1767C61.1373 68.0206 61.1526 69.863 61.1286 71.7064C61.1194 72.4019 61.3579 72.7103 62.0853 72.7212C62.8272 72.7324 63.0589 72.4035 63.0486 71.7173C63.0309 70.5476 63.0612 69.3778 63.0533 68.2081C63.048 67.4488 63.4294 67.248 64.1154 67.3618C64.9939 67.5078 65.342 68.0733 65.3626 68.8971C65.389 69.9204 65.3534 70.9461 65.4041 71.9678C65.4503 72.8959 66.1838 72.7228 66.7775 72.7462C67.4247 72.7728 67.4252 72.3822 67.4001 71.88C67.3534 70.9434 67.3771 70.006 67.3684 69.0699ZM65.2741 64.7006C65.0847 65.5128 64.4162 65.6375 63.701 65.5899C62.8845 65.5367 63.0935 64.8942 63.0533 64.4095C63.0269 64.0918 63.0486 63.7715 63.0486 63.4506H63.0515C63.0515 63.1015 63.0367 62.7519 63.0549 62.4039C63.0787 61.9546 62.9799 61.4024 63.668 61.3607C64.356 61.319 65.0652 61.3572 65.2683 62.1949C65.4662 63.018 65.4685 63.8765 65.2749 64.7006H65.2741Z"/>
<path d="M90.961 61.4232C90.7156 59.9697 90.7108 59.9705 89.2008 59.961C87.611 59.9498 87.616 59.9506 87.3736 61.5359C87.2367 62.431 87.0809 63.3232 86.9335 64.2165C86.4911 66.8963 86.0584 69.578 85.5989 72.2549C85.4932 72.8759 85.6868 73.1056 86.312 73.1123C87.0043 73.1205 87.3701 72.9046 87.485 72.1509C87.5582 71.6703 87.3545 70.8977 88.1311 70.7951C88.8413 70.702 89.6316 70.5686 90.2739 70.9043C90.7945 71.1763 90.6266 71.9 90.7494 72.428C90.7692 72.5133 90.7906 72.5989 90.8186 72.6816C91.1107 73.5427 91.8302 73.2133 92.377 73.1806C92.9705 73.1439 92.8458 72.6316 92.7776 72.2251C92.1728 68.6242 91.5672 65.0236 90.961 61.4232ZM89.6345 69.0854C89.2581 69.0886 88.8807 69.0931 88.5056 69.0668C88.21 69.0458 87.9945 68.8769 88.0421 68.5547C88.3297 66.6049 88.6319 64.6573 88.9295 62.7088L89.2182 62.7025C89.5254 64.6469 89.8365 66.5911 90.1366 68.5369C90.1918 68.9033 89.9868 69.0819 89.6345 69.0854Z"/>
<path d="M130.941 66.953H130.918C130.918 65.5503 130.966 64.1453 130.904 62.7455C130.846 61.4404 130.095 60.5751 128.928 60.2768C126.734 59.7161 125.192 60.867 125.112 63.1887C125.059 64.7652 125.083 66.3455 125.102 67.9236C125.115 69.0027 124.988 70.0887 125.19 71.1601C125.533 72.9852 126.518 73.6964 128.503 73.5794C129.974 73.4935 130.868 72.5093 130.931 70.8094C130.978 69.5262 130.941 68.2389 130.941 66.953ZM130.675 66.9694C130.675 68.1969 130.699 69.4249 130.669 70.6515C130.628 72.2916 129.785 73.2633 128.395 73.3404C126.609 73.4395 125.629 72.7449 125.483 70.9743C125.257 68.2367 125.258 65.485 125.486 62.7477C125.624 61.081 126.602 60.3284 128.166 60.401C129.621 60.4674 130.591 61.4439 130.657 63.0249C130.712 64.3375 130.668 65.6543 130.668 66.9692L130.675 66.9694Z"/>
</mask>
<path d="M103.647 47.4052C104.915 47.3972 105.049 47.2823 105.153 46.0318C105.181 45.6862 105.159 45.3299 105.116 44.9843C105.017 44.1772 104.622 43.4189 104.724 42.5772C104.907 41.0499 104.23 40.0176 102.943 39.2634C99.3969 37.1833 96.4844 34.2977 93.4308 31.5942C90.8106 29.2741 88.2507 26.8764 85.2164 25.0912C83.7793 24.2458 82.311 23.5535 80.5579 23.5678C75.0905 23.6133 69.6217 23.5846 64.1537 23.5846V23.6088C62.5248 23.6088 60.8959 23.5955 59.2673 23.6111C54.5573 23.6574 49.8458 23.4984 45.1364 23.7159C44.3012 23.7545 43.7349 23.9552 43.6705 24.9242C43.5384 26.9075 43.3638 28.8878 43.2098 30.8698C42.8717 35.2205 42.8039 39.5792 42.834 43.9408C42.8382 44.5342 42.8089 45.0784 42.3474 45.5588C42.0025 45.9182 42.0619 46.4526 42.2357 46.8921C42.396 47.2972 42.8221 47.1989 43.1602 47.1999C44.9636 47.206 46.7674 47.1771 48.5701 47.2159C49.2885 47.2316 49.5877 46.9716 49.7383 46.2588C50.2798 43.6954 52.3019 42.12 54.9572 42.1096C57.7121 42.0987 59.8685 43.6811 60.3864 46.2415C60.5565 47.0835 60.9189 47.2518 61.6706 47.2449C64.5496 47.2183 67.4286 47.234 70.3089 47.2515C76.2404 47.2878 82.172 47.3326 88.1039 47.3858C88.7129 47.3913 89.0547 47.231 89.1918 46.5558C89.7343 43.8642 92.0029 42.1035 94.7948 42.1426C97.5079 42.1798 99.8048 44.0405 100.268 46.6499C100.377 47.2669 100.668 47.4187 101.204 47.4102C102.018 47.3951 102.833 47.4102 103.647 47.4052ZM66.609 30.4436C66.5863 31.9353 66.6133 33.4276 66.5993 34.9193C66.5903 35.8867 66.3879 36.0821 65.389 36.0851C62.3663 36.0936 59.3436 36.088 56.3209 36.088V36.0768C53.3275 36.0768 50.334 36.0761 47.3405 36.0747C46.1932 36.0726 45.9206 35.8274 45.9097 34.7103C45.896 33.2774 45.9322 31.8441 45.9362 30.4109C45.9388 29.6535 46.2845 29.2879 47.0534 29.2882C53.186 29.2919 59.3184 29.2887 65.4508 29.2786C66.2487 29.2776 66.6214 29.6216 66.609 30.4436ZM80.0173 35.3986C80.0244 35.8506 79.6739 36.0074 79.2613 36.1013C78.3567 36.3068 77.4634 36.0856 76.5656 36.0867C74.0342 36.0893 71.5027 36.0881 68.9711 36.0829C67.8486 36.0789 67.7059 35.9314 67.6996 34.8169C67.6913 33.3813 67.6907 31.9462 67.6978 30.5117C67.7038 29.4831 67.8885 29.2983 68.9392 29.2914C70.5976 29.2802 72.2564 29.2885 73.9148 29.2887C75.6024 29.2887 77.2901 29.3026 78.9777 29.2829C79.7003 29.2744 80.0305 29.5971 80.1031 30.3112C80.2756 32.0116 79.9914 33.7017 80.0173 35.3986ZM96.2393 36.897C96.0985 37.1937 95.7808 37.0831 95.532 37.0642C92.087 36.7918 88.6422 36.5148 85.1976 36.2331C83.3163 36.0776 82.8643 35.5831 82.7148 33.6676C82.6382 32.6776 82.4811 31.6937 82.3979 30.7039C82.311 29.6649 82.6356 29.3215 83.6768 29.2927C84.316 29.2757 84.956 29.2896 85.5954 29.2896C87.8141 28.907 89.4985 29.7133 90.9887 31.4023C92.5087 33.1256 94.2639 34.6386 95.9104 36.2494C96.0898 36.4235 96.3835 36.5942 96.2393 36.897Z" fill="white"/>
<path d="M6.30834 59.2575C4.79876 59.2634 3.28917 59.2539 1.77959 59.2291C1.1256 59.2192 0.934369 59.5497 0.937539 60.1596C0.942029 60.8981 1.40716 60.9571 1.9341 60.9055C2.81867 60.8173 3.10102 61.1961 3.0651 62.0703C3.00461 63.529 3.04846 64.992 3.05031 66.4532C3.05031 68.002 3.06563 69.5512 3.04265 71.0998C3.03367 71.7224 3.25554 71.992 3.89764 72.0186C4.67708 72.0513 4.9111 71.7048 4.90608 70.9737C4.88627 68.1097 4.89684 65.2456 4.90106 62.3816C4.90344 60.9784 4.90793 60.9577 6.26212 60.9329C6.83845 60.9226 7.11605 60.7386 7.11658 60.1207C7.11711 59.5367 6.91373 59.2551 6.30834 59.2575Z" fill="white"/>
<path d="M14.4512 65.7316C14.4512 63.8887 14.4279 62.045 14.4623 60.2018C14.4765 59.4348 14.1213 59.2745 13.4485 59.2695C12.7431 59.2642 12.4449 59.4989 12.4686 60.2356C12.5072 61.4338 12.4364 62.6363 12.4906 63.8331C12.5281 64.6618 12.1815 64.9516 11.4163 64.882C11.2715 64.8681 11.1256 64.8681 10.9808 64.882C10.316 64.9487 10.041 64.6873 10.0651 63.9826C10.1086 62.6969 10.0524 61.408 10.0841 60.1215C10.1026 59.3684 9.69104 59.2708 9.08724 59.2674C8.46733 59.2634 8.10152 59.4019 8.10548 60.1388C8.12608 63.8253 8.12705 67.5119 8.10838 71.1984C8.10336 72.2522 8.88941 72.026 9.46627 72.0959C10.1652 72.1805 10.0698 71.6256 10.0738 71.201C10.0835 69.9725 10.1197 68.7416 10.0629 67.5158C10.0265 66.7251 10.3213 66.5055 11.0709 66.5297C12.4512 66.5757 12.4758 66.5613 12.4776 67.9552C12.4792 69.0375 12.5069 70.1209 12.4689 71.2021C12.4425 71.9255 12.7209 72.1789 13.4367 72.1858C14.1812 72.1922 14.4816 71.9505 14.4649 71.1734C14.4258 69.36 14.4522 67.5455 14.4512 65.7316Z" fill="white"/>
<path d="M20.6492 70.529C20.3608 70.5555 20.0681 70.5399 19.7776 70.529C18.1043 70.4707 17.9844 70.9049 17.9942 68.6879C18.0032 66.6249 17.9942 66.6116 19.9908 66.5672C20.5835 66.5542 20.9134 66.401 20.9131 65.7205C20.9128 65.0399 20.5753 64.8572 19.9855 64.8811C19.608 64.8963 19.2287 64.8649 18.8513 64.8793C18.2589 64.9016 17.9998 64.6118 18.0042 64.0333C18.0095 63.3309 18.0159 62.628 18.0042 61.9256C17.9926 61.2804 18.3035 61.0425 18.9226 61.0821C19.4443 61.1158 19.9694 61.0903 20.4929 61.097C21.0668 61.1044 21.6051 61.1445 21.613 60.2818C21.6212 59.3798 21.0544 59.4013 20.4472 59.3992C19.285 59.3947 18.117 59.4378 16.9583 59.3607C16.2525 59.3139 16.1078 59.6018 16.1131 60.2114C16.1316 62.0267 16.1197 63.8419 16.1192 65.6572C16.1186 67.4724 16.1442 69.2882 16.1075 71.1027C16.0917 71.8832 16.3392 72.2233 17.1556 72.1959C18.3178 72.1571 19.482 72.203 20.6453 72.2248C21.163 72.2347 21.6247 72.2865 21.6186 71.4993C21.6125 70.781 21.3724 70.4622 20.6492 70.529Z" fill="white"/>
<path d="M37.8752 70.677C37.614 70.6824 37.3522 70.6563 37.0908 70.6539C34.9693 70.634 35.2455 70.7055 35.2329 68.7217C35.2202 66.7379 35.2292 66.7278 37.221 66.5962C37.7947 66.5587 38.0662 66.337 38.0696 65.7425C38.0731 65.148 37.8227 64.8787 37.2331 64.8984C36.8269 64.912 36.4193 64.883 36.0128 64.8947C35.4582 64.9104 35.2241 64.6451 35.2334 64.0971C35.2463 63.3368 35.249 62.5756 35.2289 61.8156C35.2152 61.2868 35.4463 61.0786 35.9613 61.0938C36.6293 61.1134 37.2986 61.0802 37.9666 61.1007C38.5546 61.1185 38.8984 60.9585 38.8961 60.2699C38.8937 59.5991 38.5662 59.4035 37.9772 59.4032C36.6695 59.4032 35.3594 59.4298 34.0551 59.3575C33.3969 59.3202 33.2466 59.5702 33.2516 60.1508C33.2683 62.0229 33.2577 63.8954 33.2559 65.7675C33.2559 67.5814 33.2527 69.3951 33.2572 71.209C33.2598 72.2884 33.3031 72.3277 34.4072 72.3341C35.5406 72.3408 36.6742 72.3322 37.8076 72.3501C38.404 72.3594 38.9069 72.3596 38.899 71.5124C38.8921 70.7414 38.4534 70.6653 37.8752 70.677Z" fill="white"/>
<path d="M40.003 31.9454C40.1491 29.699 40.3419 27.4554 40.4737 25.2081C40.6494 22.2082 42.1723 20.6445 45.1522 20.5392C46.5754 20.4889 48.0017 20.5307 49.4264 20.5307V20.5137C50.9388 20.5137 52.4512 20.4977 53.9631 20.5211C54.6023 20.5309 54.8989 20.2688 55.0214 19.6345C55.3878 17.7427 55.4065 15.8514 55.0589 13.9646C53.528 5.65478 45.8345 -0.0103226 37.5126 0.949945C28.9981 1.93361 22.8405 9.3576 23.0599 17.4305C23.2826 25.6221 30.2104 32.8855 39.0699 32.8087C39.6953 32.8031 39.9626 32.5646 40.003 31.9454Z" fill="white"/>
<path d="M45.2822 59.4508C43.6844 59.4572 42.0866 59.4516 40.4888 59.434C39.8755 59.4274 39.694 59.7366 39.6853 60.3084C39.6731 61.09 40.1607 61.1108 40.727 61.1214C41.8406 61.1424 41.9095 61.2142 41.918 62.3273C41.9291 63.7895 41.9206 65.2517 41.9225 66.7139C41.9225 68.2346 41.933 69.7553 41.9177 71.276C41.9108 71.9449 42.0352 72.4024 42.8599 72.4088C43.6787 72.4152 43.816 71.988 43.8107 71.301C43.7936 68.4646 43.7973 65.6279 43.8073 62.7913C43.812 61.4258 43.6023 61.1031 45.2674 61.1398C45.8791 61.1531 46.0637 60.8221 46.0585 60.2523C46.0545 59.7007 45.8398 59.4487 45.2822 59.4508Z" fill="white"/>
<path d="M51.887 59.455C50.4058 59.4758 48.9235 59.4816 47.4428 59.4439C46.695 59.4247 46.4713 59.7555 46.5157 60.4525C46.5545 61.064 46.9311 61.1273 47.4068 61.1565C48.7299 61.2381 48.7315 61.2472 48.7338 62.5847C48.7365 64.0175 48.7365 65.4503 48.7338 66.883H48.7383C48.7383 68.462 48.7468 70.0411 48.7338 71.62C48.7288 72.2336 48.961 72.5091 49.6055 72.5325C50.3508 72.559 50.6575 72.2988 50.6522 71.5304C50.6313 68.5186 50.6416 65.5067 50.6503 62.4951C50.6535 61.3025 50.6768 61.2735 51.8756 61.27C52.4691 61.2684 52.8936 61.1935 52.8902 60.4326C52.8883 59.7076 52.5803 59.4455 51.887 59.455Z" fill="white"/>
<path d="M55.0914 50.945C57.2438 50.9628 58.9741 49.305 58.9477 47.2475C58.9229 45.2353 57.2324 43.6457 55.093 43.6231C52.9232 43.6 51.2589 45.135 51.233 47.1829C51.2058 49.3191 52.8545 50.9275 55.0914 50.945Z" fill="white"/>
<path d="M58.7494 70.8849C58.4588 70.8969 58.1683 70.8871 57.8777 70.8849C55.7911 70.8639 56.0114 71.1106 56.0005 69.0146C55.99 66.9798 55.9982 66.9798 57.9612 66.8937C58.019 66.891 58.0774 66.8891 58.1355 66.8897C58.6638 66.8942 58.8413 66.5924 58.8458 66.1054C58.8505 65.6059 58.7208 65.2719 58.1434 65.2015C57.4435 65.1162 56.4794 65.4205 56.1181 64.8186C55.7924 64.2755 56.0145 63.399 55.9995 62.6692C55.9947 62.4355 56.0103 62.2013 56.0053 61.9674C55.9947 61.4864 56.2377 61.2793 56.7002 61.2831C57.4266 61.2886 58.1529 61.2791 58.8796 61.2892C59.4229 61.2969 59.6638 61.0592 59.6685 60.4961C59.6733 59.9269 59.5037 59.6076 58.883 59.6092C57.5756 59.6127 56.2681 59.6063 54.9604 59.572C54.2407 59.5534 53.9884 59.8761 53.9987 60.5788C54.0251 62.3919 54.0074 64.2059 54.009 66.0193C54.009 67.8914 54.0191 69.7636 54.0035 71.6354C53.9982 72.2408 54.1995 72.5659 54.85 72.5736C56.1564 72.5915 57.4625 72.6351 58.7678 72.692C59.3809 72.7185 59.6759 72.5136 59.6733 71.8449C59.6706 71.1763 59.4208 70.8568 58.7494 70.8849Z" fill="white"/>
<path d="M76.1605 59.8012C74.5316 59.8068 72.9024 59.7791 71.2741 59.7929C70.5345 59.7991 70.1581 60.477 70.5055 61.1318C70.7538 61.5994 71.2186 61.4793 71.6008 61.4551C72.4254 61.4019 72.7455 61.7254 72.7189 62.5717C72.6708 64.0926 72.7054 65.6162 72.7067 67.1385C72.7067 68.6903 72.7305 70.2426 72.6964 71.7936C72.68 72.538 72.8583 72.9352 73.7057 72.9381C74.5702 72.9411 74.7051 72.5114 74.7001 71.7833C74.6785 68.7094 74.7091 65.6348 74.68 62.561C74.6729 61.8166 74.9159 61.4556 75.6726 61.5011C75.8462 61.5117 76.0215 61.4856 76.1959 61.4891C76.8258 61.5013 76.9669 61.1304 76.964 60.5783C76.9611 60.0093 76.7004 59.7993 76.1605 59.8012Z" fill="white"/>
<path d="M94.8418 51.2396C97.009 51.213 98.6743 49.5323 98.6571 47.3892C98.64 45.2746 96.972 43.7568 94.6706 43.7614C92.4316 43.7659 90.6773 45.3977 90.7087 47.4456C90.7438 49.5222 92.6427 51.2664 94.8418 51.2396Z" fill="white"/>
<path d="M100.245 60.0633C99.7697 59.6723 98.6244 60.0997 98.5224 60.7189C98.1659 62.8801 97.8436 65.0468 97.4939 67.209C97.3238 68.2604 97.2607 69.3358 96.9506 70.3583L96.7237 70.3317C96.5972 69.5586 96.4651 68.7863 96.3457 68.0121C95.976 65.616 95.6215 63.2177 95.2364 60.8239C95.1075 60.0211 94.6131 59.7871 93.6516 59.995C92.9364 60.1495 93.1625 60.6663 93.2333 61.1097C93.7668 64.4558 94.3039 67.8012 94.8444 71.146C95.2142 73.4196 95.219 73.4087 97.5404 73.2785C98.0871 73.2479 98.3838 73.0658 98.4691 72.4766C98.6999 70.8871 98.9807 69.305 99.2401 67.7197C99.6077 65.4711 99.9823 63.2235 100.33 60.972C100.378 60.678 100.548 60.3122 100.245 60.0633Z" fill="white"/>
<path d="M104.518 61.8275C105.186 61.8336 105.854 61.8097 106.522 61.8238C107.113 61.836 107.54 61.7403 107.539 60.9818C107.539 60.2518 107.155 60.0981 106.545 60.0987C105.267 60.0987 103.984 60.1386 102.713 60.0357C101.928 59.9721 101.667 60.1888 101.681 60.9691C101.714 62.8692 101.692 64.7708 101.692 66.6709C101.692 68.6007 101.709 70.5306 101.683 72.4601C101.674 73.1328 101.918 73.4138 102.598 73.4029C103.963 73.3811 105.328 73.3989 106.694 73.4177C107.277 73.426 107.537 73.1833 107.535 72.5811C107.533 72.0034 107.322 71.7128 106.724 71.7001C105.999 71.6846 105.275 71.5937 104.551 71.5961C103.967 71.5974 103.689 71.3792 103.698 70.7781C103.711 69.9598 103.709 69.1412 103.693 68.3224C103.68 67.7167 103.979 67.4674 104.547 67.495C105.011 67.5177 105.474 67.5493 105.937 67.5897C106.57 67.645 106.83 67.3741 106.818 66.7251C106.807 66.1378 106.675 65.7553 105.996 65.7773C105.503 65.793 105.009 65.7571 104.515 65.7593C103.985 65.7614 103.698 65.5296 103.701 64.9739C103.705 64.1847 103.705 63.3953 103.701 62.6057C103.697 62.0455 103.988 61.8219 104.518 61.8275Z" fill="white"/>
<path d="M114.119 71.7562C113.626 71.7657 113.132 71.754 112.639 71.7524C111.176 71.7479 111.175 71.7482 111.173 70.3192C111.172 68.8581 111.171 67.397 111.171 65.9361C111.171 64.2705 111.155 62.6046 111.177 60.938C111.188 60.1548 110.702 60.12 110.136 60.1359C109.613 60.1505 109.035 60.0561 109.036 60.8734C109.04 64.8181 109.04 68.763 109.036 72.7079C109.036 73.1678 109.243 73.4241 109.71 73.4374C111.189 73.4793 112.668 73.5197 114.146 73.5586C114.757 73.5754 114.841 73.1865 114.843 72.6901C114.846 72.1712 114.785 71.7439 114.119 71.7562Z" fill="white"/>
<path d="M123.026 71.0561C122.752 72.5675 121.818 73.363 120.472 73.283C119.023 73.1968 118.044 72.2613 118.011 70.7286C117.955 68.0967 117.955 65.4638 118.011 62.8301C118.042 61.3147 118.931 60.4374 120.311 60.3589C121.813 60.2723 122.715 60.9733 123.016 62.4975C123.121 63.0337 123.167 63.5822 123.24 64.1248C123.461 63.407 123.417 62.7179 123.213 62.0365C122.86 60.8473 122.018 60.188 120.788 60.1436C118.787 60.0729 117.784 60.9502 117.738 62.984C117.679 65.4985 117.716 68.0156 117.725 70.5314C117.728 70.8531 117.769 71.1732 117.848 71.485C118.162 72.7459 119.226 73.5496 120.547 73.5469C121.904 73.5443 122.848 72.8501 123.229 71.5916C123.462 70.8206 123.42 70.0411 123.218 69.2459C123.155 69.85 123.133 70.4609 123.026 71.0561Z" fill="white"/>
<path d="M83.4074 66.3768C84.7708 65.0848 84.5418 63.4668 84.2914 61.865C84.1295 60.83 83.4623 60.2279 82.4578 59.9852C81.222 59.6863 79.9669 59.8456 78.7199 59.8203C78.2138 59.81 78.1066 60.1742 78.1063 60.5972C78.1063 64.4919 78.1053 68.3867 78.1031 72.2815C78.1016 73.0849 78.6438 73.0296 79.1837 73.0525C79.7801 73.0769 80.1367 72.8998 80.1082 72.2193C80.0817 71.6054 80.1026 70.9894 80.1026 70.3745H80.1071C80.1071 69.7595 80.1071 69.1445 80.1071 68.5295C80.1071 68.471 80.1137 68.4122 80.1111 68.354C80.0846 67.7718 80.3963 67.5891 80.9299 67.6131C81.9193 67.6575 82.3612 68.1849 82.4159 69.4879C82.4552 70.4237 82.4423 71.3616 82.4758 72.2977C82.512 73.2758 83.2642 73.0155 83.8353 73.0687C84.5014 73.1295 84.4916 72.7135 84.4761 72.2264C84.4462 71.2901 84.4832 70.3516 84.4496 69.4156C84.4172 68.4952 84.2695 67.6016 83.5017 66.9596C83.3044 66.7932 83.1633 66.6071 83.4074 66.3768ZM82.2917 64.9534C82.1179 65.6564 81.115 66.1001 80.4544 65.8212C80.1486 65.692 80.1192 65.4437 80.1155 65.176C80.1087 64.6788 80.1137 64.1811 80.1137 63.6837H80.1066C80.1066 63.362 80.0878 63.0388 80.1111 62.7184C80.1446 62.2574 79.9513 61.6531 80.745 61.6228C81.4552 61.5962 82.1121 61.6555 82.3094 62.5172C82.496 63.3191 82.49 64.1543 82.2917 64.9534Z" fill="white"/>
<path d="M30.735 65.0901C31.8863 64.1352 31.6317 62.8245 31.5757 61.5893C31.5229 60.4196 30.8951 59.7398 29.7546 59.4332C28.7245 59.1562 27.6724 59.3463 26.6344 59.2679C25.847 59.2086 25.5401 59.4968 25.5607 60.3154C25.6056 62.0966 25.5747 63.8805 25.5739 65.6633C25.5739 67.5338 25.5877 69.4047 25.5663 71.2747C25.5591 71.9021 25.7879 72.1935 26.4279 72.1805C27.4434 72.1594 28.4617 72.2007 29.4756 72.1616C30.422 72.1254 31.1307 71.6333 31.5636 70.7951C32.3103 69.3491 31.9426 66.8384 30.8198 65.6487C30.6389 65.457 30.4643 65.3148 30.735 65.0901ZM28.1027 61.0143C28.7649 60.9686 29.4014 61.0276 29.628 61.8307C29.8061 62.4624 29.8182 63.1044 29.6452 63.7303C29.4505 64.4361 28.5446 64.8221 27.8798 64.5509C27.6077 64.4398 27.5562 64.2404 27.5509 64.0009C27.5425 63.5931 27.5488 63.185 27.5488 62.778H27.5377C27.5377 62.5448 27.5243 62.3106 27.5406 62.0788C27.5721 61.6414 27.3874 61.0637 28.1027 61.0143ZM28.22 70.5159C27.7641 70.4628 27.5396 70.2594 27.5433 69.7904C27.5491 69.0311 27.5034 68.2692 27.552 67.5134C27.5784 67.0938 27.2372 66.4574 28.0692 66.3633C29.0309 66.2543 29.6803 66.576 29.8526 67.3485C29.94 67.7423 29.922 68.1599 29.9519 68.5664C29.9255 70.1767 29.487 70.6659 28.22 70.5159Z" fill="white"/>
<path d="M67.3684 69.0699C67.3607 68.1679 67.2128 67.3193 66.4767 66.6919C66.2884 66.5324 66.1225 66.3378 66.3845 66.1144C67.5874 65.0904 67.3716 63.6904 67.3409 62.3619C67.3018 60.6681 66.3547 59.7222 64.6664 59.6414C63.8251 59.6013 62.9786 59.6651 62.1389 59.6127C61.3571 59.5638 61.1175 59.9123 61.1276 60.6469C61.154 62.4895 61.1363 64.3327 61.1368 66.1767C61.1373 68.0206 61.1526 69.863 61.1286 71.7064C61.1194 72.4019 61.3579 72.7103 62.0853 72.7212C62.8272 72.7324 63.0589 72.4035 63.0486 71.7173C63.0309 70.5476 63.0612 69.3778 63.0533 68.2081C63.048 67.4488 63.4294 67.248 64.1154 67.3618C64.9939 67.5078 65.342 68.0733 65.3626 68.8971C65.389 69.9204 65.3534 70.9461 65.4041 71.9678C65.4503 72.8959 66.1838 72.7228 66.7775 72.7462C67.4247 72.7728 67.4252 72.3822 67.4001 71.88C67.3534 70.9434 67.3771 70.006 67.3684 69.0699ZM65.2741 64.7006C65.0847 65.5128 64.4162 65.6375 63.701 65.5899C62.8845 65.5367 63.0935 64.8942 63.0533 64.4095C63.0269 64.0918 63.0486 63.7715 63.0486 63.4506H63.0515C63.0515 63.1015 63.0367 62.7519 63.0549 62.4039C63.0787 61.9546 62.9799 61.4024 63.668 61.3607C64.356 61.319 65.0652 61.3572 65.2683 62.1949C65.4662 63.018 65.4685 63.8765 65.2749 64.7006H65.2741Z" fill="white"/>
<path d="M90.961 61.4232C90.7156 59.9697 90.7108 59.9705 89.2008 59.961C87.611 59.9498 87.616 59.9506 87.3736 61.5359C87.2367 62.431 87.0809 63.3232 86.9335 64.2165C86.4911 66.8963 86.0584 69.578 85.5989 72.2549C85.4932 72.8759 85.6868 73.1056 86.312 73.1123C87.0043 73.1205 87.3701 72.9046 87.485 72.1509C87.5582 71.6703 87.3545 70.8977 88.1311 70.7951C88.8413 70.702 89.6316 70.5686 90.2739 70.9043C90.7945 71.1763 90.6266 71.9 90.7494 72.428C90.7692 72.5133 90.7906 72.5989 90.8186 72.6816C91.1107 73.5427 91.8302 73.2133 92.377 73.1806C92.9705 73.1439 92.8458 72.6316 92.7776 72.2251C92.1728 68.6242 91.5672 65.0236 90.961 61.4232ZM89.6345 69.0854C89.2581 69.0886 88.8807 69.0931 88.5056 69.0668C88.21 69.0458 87.9945 68.8769 88.0421 68.5547C88.3297 66.6049 88.6319 64.6573 88.9295 62.7088L89.2182 62.7025C89.5254 64.6469 89.8365 66.5911 90.1366 68.5369C90.1918 68.9033 89.9868 69.0819 89.6345 69.0854Z" fill="white"/>
<path d="M130.941 66.953H130.918C130.918 65.5503 130.966 64.1453 130.904 62.7455C130.846 61.4404 130.095 60.5751 128.928 60.2768C126.734 59.7161 125.192 60.867 125.112 63.1887C125.059 64.7652 125.083 66.3455 125.102 67.9236C125.115 69.0027 124.988 70.0887 125.19 71.1601C125.533 72.9852 126.518 73.6964 128.503 73.5794C129.974 73.4935 130.868 72.5093 130.931 70.8094C130.978 69.5262 130.941 68.2389 130.941 66.953ZM130.675 66.9694C130.675 68.1969 130.699 69.4249 130.669 70.6515C130.628 72.2916 129.785 73.2633 128.395 73.3404C126.609 73.4395 125.629 72.7449 125.483 70.9743C125.257 68.2367 125.258 65.485 125.486 62.7477C125.624 61.081 126.602 60.3284 128.166 60.401C129.621 60.4674 130.591 61.4439 130.657 63.0249C130.712 64.3375 130.668 65.6543 130.668 66.9692L130.675 66.9694Z" fill="white"/>
<path d="M103.647 47.4052C104.915 47.3972 105.049 47.2823 105.153 46.0318C105.181 45.6862 105.159 45.3299 105.116 44.9843C105.017 44.1772 104.622 43.4189 104.724 42.5772C104.907 41.0499 104.23 40.0176 102.943 39.2634C99.3969 37.1833 96.4844 34.2977 93.4308 31.5942C90.8106 29.2741 88.2507 26.8764 85.2164 25.0912C83.7793 24.2458 82.311 23.5535 80.5579 23.5678C75.0905 23.6133 69.6217 23.5846 64.1537 23.5846V23.6088C62.5248 23.6088 60.8959 23.5955 59.2673 23.6111C54.5573 23.6574 49.8458 23.4984 45.1364 23.7159C44.3012 23.7545 43.7349 23.9552 43.6705 24.9242C43.5384 26.9075 43.3638 28.8878 43.2098 30.8698C42.8717 35.2205 42.8039 39.5792 42.834 43.9408C42.8382 44.5342 42.8089 45.0784 42.3474 45.5588C42.0025 45.9182 42.0619 46.4526 42.2357 46.8921C42.396 47.2972 42.8221 47.1989 43.1602 47.1999C44.9636 47.206 46.7674 47.1771 48.5701 47.2159C49.2885 47.2316 49.5877 46.9716 49.7383 46.2588C50.2798 43.6954 52.3019 42.12 54.9572 42.1096C57.7121 42.0987 59.8685 43.6811 60.3864 46.2415C60.5565 47.0835 60.9189 47.2518 61.6706 47.2449C64.5496 47.2183 67.4286 47.234 70.3089 47.2515C76.2404 47.2878 82.172 47.3326 88.1039 47.3858C88.7129 47.3913 89.0547 47.231 89.1918 46.5558C89.7343 43.8642 92.0029 42.1035 94.7948 42.1426C97.5079 42.1798 99.8048 44.0405 100.268 46.6499C100.377 47.2669 100.668 47.4187 101.204 47.4102C102.018 47.3951 102.833 47.4102 103.647 47.4052ZM66.609 30.4436C66.5863 31.9353 66.6133 33.4276 66.5993 34.9193C66.5903 35.8867 66.3879 36.0821 65.389 36.0851C62.3663 36.0936 59.3436 36.088 56.3209 36.088V36.0768C53.3275 36.0768 50.334 36.0761 47.3405 36.0747C46.1932 36.0726 45.9206 35.8274 45.9097 34.7103C45.896 33.2774 45.9322 31.8441 45.9362 30.4109C45.9388 29.6535 46.2845 29.2879 47.0534 29.2882C53.186 29.2919 59.3184 29.2887 65.4508 29.2786C66.2487 29.2776 66.6214 29.6216 66.609 30.4436ZM80.0173 35.3986C80.0244 35.8506 79.6739 36.0074 79.2613 36.1013C78.3567 36.3068 77.4634 36.0856 76.5656 36.0867C74.0342 36.0893 71.5027 36.0881 68.9711 36.0829C67.8486 36.0789 67.7059 35.9314 67.6996 34.8169C67.6913 33.3813 67.6907 31.9462 67.6978 30.5117C67.7038 29.4831 67.8885 29.2983 68.9392 29.2914C70.5976 29.2802 72.2564 29.2885 73.9148 29.2887C75.6024 29.2887 77.2901 29.3026 78.9777 29.2829C79.7003 29.2744 80.0305 29.5971 80.1031 30.3112C80.2756 32.0116 79.9914 33.7017 80.0173 35.3986ZM96.2393 36.897C96.0985 37.1937 95.7808 37.0831 95.532 37.0642C92.087 36.7918 88.6422 36.5148 85.1976 36.2331C83.3163 36.0776 82.8643 35.5831 82.7148 33.6676C82.6382 32.6776 82.4811 31.6937 82.3979 30.7039C82.311 29.6649 82.6356 29.3215 83.6768 29.2927C84.316 29.2757 84.956 29.2896 85.5954 29.2896C87.8141 28.907 89.4985 29.7133 90.9887 31.4023C92.5087 33.1256 94.2639 34.6386 95.9104 36.2494C96.0898 36.4235 96.3835 36.5942 96.2393 36.897Z" stroke="white" stroke-width="2" mask="url(#path-1-inside-1_1785_357)"/>
<path d="M6.30834 59.2575C4.79876 59.2634 3.28917 59.2539 1.77959 59.2291C1.1256 59.2192 0.934369 59.5497 0.937539 60.1596C0.942029 60.8981 1.40716 60.9571 1.9341 60.9055C2.81867 60.8173 3.10102 61.1961 3.0651 62.0703C3.00461 63.529 3.04846 64.992 3.05031 66.4532C3.05031 68.002 3.06563 69.5512 3.04265 71.0998C3.03367 71.7224 3.25554 71.992 3.89764 72.0186C4.67708 72.0513 4.9111 71.7048 4.90608 70.9737C4.88627 68.1097 4.89684 65.2456 4.90106 62.3816C4.90344 60.9784 4.90793 60.9577 6.26212 60.9329C6.83845 60.9226 7.11605 60.7386 7.11658 60.1207C7.11711 59.5367 6.91373 59.2551 6.30834 59.2575Z" stroke="white" stroke-width="2" mask="url(#path-1-inside-1_1785_357)"/>
<path d="M14.4512 65.7316C14.4512 63.8887 14.4279 62.045 14.4623 60.2018C14.4765 59.4348 14.1213 59.2745 13.4485 59.2695C12.7431 59.2642 12.4449 59.4989 12.4686 60.2356C12.5072 61.4338 12.4364 62.6363 12.4906 63.8331C12.5281 64.6618 12.1815 64.9516 11.4163 64.882C11.2715 64.8681 11.1256 64.8681 10.9808 64.882C10.316 64.9487 10.041 64.6873 10.0651 63.9826C10.1086 62.6969 10.0524 61.408 10.0841 60.1215C10.1026 59.3684 9.69104 59.2708 9.08724 59.2674C8.46733 59.2634 8.10152 59.4019 8.10548 60.1388C8.12608 63.8253 8.12705 67.5119 8.10838 71.1984C8.10336 72.2522 8.88941 72.026 9.46627 72.0959C10.1652 72.1805 10.0698 71.6256 10.0738 71.201C10.0835 69.9725 10.1197 68.7416 10.0629 67.5158C10.0265 66.7251 10.3213 66.5055 11.0709 66.5297C12.4512 66.5757 12.4758 66.5613 12.4776 67.9552C12.4792 69.0375 12.5069 70.1209 12.4689 71.2021C12.4425 71.9255 12.7209 72.1789 13.4367 72.1858C14.1812 72.1922 14.4816 71.9505 14.4649 71.1734C14.4258 69.36 14.4522 67.5455 14.4512 65.7316Z" stroke="white" stroke-width="2" mask="url(#path-1-inside-1_1785_357)"/>
<path d="M20.6492 70.529C20.3608 70.5555 20.0681 70.5399 19.7776 70.529C18.1043 70.4707 17.9844 70.9049 17.9942 68.6879C18.0032 66.6249 17.9942 66.6116 19.9908 66.5672C20.5835 66.5542 20.9134 66.401 20.9131 65.7205C20.9128 65.0399 20.5753 64.8572 19.9855 64.8811C19.608 64.8963 19.2287 64.8649 18.8513 64.8793C18.2589 64.9016 17.9998 64.6118 18.0042 64.0333C18.0095 63.3309 18.0159 62.628 18.0042 61.9256C17.9926 61.2804 18.3035 61.0425 18.9226 61.0821C19.4443 61.1158 19.9694 61.0903 20.4929 61.097C21.0668 61.1044 21.6051 61.1445 21.613 60.2818C21.6212 59.3798 21.0544 59.4013 20.4472 59.3992C19.285 59.3947 18.117 59.4378 16.9583 59.3607C16.2525 59.3139 16.1078 59.6018 16.1131 60.2114C16.1316 62.0267 16.1197 63.8419 16.1192 65.6572C16.1186 67.4724 16.1442 69.2882 16.1075 71.1027C16.0917 71.8832 16.3392 72.2233 17.1556 72.1959C18.3178 72.1571 19.482 72.203 20.6453 72.2248C21.163 72.2347 21.6247 72.2865 21.6186 71.4993C21.6125 70.781 21.3724 70.4622 20.6492 70.529Z" stroke="white" stroke-width="2" mask="url(#path-1-inside-1_1785_357)"/>
<path d="M37.8752 70.677C37.614 70.6824 37.3522 70.6563 37.0908 70.6539C34.9693 70.634 35.2455 70.7055 35.2329 68.7217C35.2202 66.7379 35.2292 66.7278 37.221 66.5962C37.7947 66.5587 38.0662 66.337 38.0696 65.7425C38.0731 65.148 37.8227 64.8787 37.2331 64.8984C36.8269 64.912 36.4193 64.883 36.0128 64.8947C35.4582 64.9104 35.2241 64.6451 35.2334 64.0971C35.2463 63.3368 35.249 62.5756 35.2289 61.8156C35.2152 61.2868 35.4463 61.0786 35.9613 61.0938C36.6293 61.1134 37.2986 61.0802 37.9666 61.1007C38.5546 61.1185 38.8984 60.9585 38.8961 60.2699C38.8937 59.5991 38.5662 59.4035 37.9772 59.4032C36.6695 59.4032 35.3594 59.4298 34.0551 59.3575C33.3969 59.3202 33.2466 59.5702 33.2516 60.1508C33.2683 62.0229 33.2577 63.8954 33.2559 65.7675C33.2559 67.5814 33.2527 69.3951 33.2572 71.209C33.2598 72.2884 33.3031 72.3277 34.4072 72.3341C35.5406 72.3408 36.6742 72.3322 37.8076 72.3501C38.404 72.3594 38.9069 72.3596 38.899 71.5124C38.8921 70.7414 38.4534 70.6653 37.8752 70.677Z" stroke="white" stroke-width="2" mask="url(#path-1-inside-1_1785_357)"/>
<path d="M40.003 31.9454C40.1491 29.699 40.3419 27.4554 40.4737 25.2081C40.6494 22.2082 42.1723 20.6445 45.1522 20.5392C46.5754 20.4889 48.0017 20.5307 49.4264 20.5307V20.5137C50.9388 20.5137 52.4512 20.4977 53.9631 20.5211C54.6023 20.5309 54.8989 20.2688 55.0214 19.6345C55.3878 17.7427 55.4065 15.8514 55.0589 13.9646C53.528 5.65478 45.8345 -0.0103226 37.5126 0.949945C28.9981 1.93361 22.8405 9.3576 23.0599 17.4305C23.2826 25.6221 30.2104 32.8855 39.0699 32.8087C39.6953 32.8031 39.9626 32.5646 40.003 31.9454Z" stroke="white" stroke-width="2" mask="url(#path-1-inside-1_1785_357)"/>
<path d="M45.2822 59.4508C43.6844 59.4572 42.0866 59.4516 40.4888 59.434C39.8755 59.4274 39.694 59.7366 39.6853 60.3084C39.6731 61.09 40.1607 61.1108 40.727 61.1214C41.8406 61.1424 41.9095 61.2142 41.918 62.3273C41.9291 63.7895 41.9206 65.2517 41.9225 66.7139C41.9225 68.2346 41.933 69.7553 41.9177 71.276C41.9108 71.9449 42.0352 72.4024 42.8599 72.4088C43.6787 72.4152 43.816 71.988 43.8107 71.301C43.7936 68.4646 43.7973 65.6279 43.8073 62.7913C43.812 61.4258 43.6023 61.1031 45.2674 61.1398C45.8791 61.1531 46.0637 60.8221 46.0585 60.2523C46.0545 59.7007 45.8398 59.4487 45.2822 59.4508Z" stroke="white" stroke-width="2" mask="url(#path-1-inside-1_1785_357)"/>
<path d="M51.887 59.455C50.4058 59.4758 48.9235 59.4816 47.4428 59.4439C46.695 59.4247 46.4713 59.7555 46.5157 60.4525C46.5545 61.064 46.9311 61.1273 47.4068 61.1565C48.7299 61.2381 48.7315 61.2472 48.7338 62.5847C48.7365 64.0175 48.7365 65.4503 48.7338 66.883H48.7383C48.7383 68.462 48.7468 70.0411 48.7338 71.62C48.7288 72.2336 48.961 72.5091 49.6055 72.5325C50.3508 72.559 50.6575 72.2988 50.6522 71.5304C50.6313 68.5186 50.6416 65.5067 50.6503 62.4951C50.6535 61.3025 50.6768 61.2735 51.8756 61.27C52.4691 61.2684 52.8936 61.1935 52.8902 60.4326C52.8883 59.7076 52.5803 59.4455 51.887 59.455Z" stroke="white" stroke-width="2" mask="url(#path-1-inside-1_1785_357)"/>
<path d="M55.0914 50.945C57.2438 50.9628 58.9741 49.305 58.9477 47.2475C58.9229 45.2353 57.2324 43.6457 55.093 43.6231C52.9232 43.6 51.2589 45.135 51.233 47.1829C51.2058 49.3191 52.8545 50.9275 55.0914 50.945Z" stroke="white" stroke-width="2" mask="url(#path-1-inside-1_1785_357)"/>
<path d="M58.7494 70.8849C58.4588 70.8969 58.1683 70.8871 57.8777 70.8849C55.7911 70.8639 56.0114 71.1106 56.0005 69.0146C55.99 66.9798 55.9982 66.9798 57.9612 66.8937C58.019 66.891 58.0774 66.8891 58.1355 66.8897C58.6638 66.8942 58.8413 66.5924 58.8458 66.1054C58.8505 65.6059 58.7208 65.2719 58.1434 65.2015C57.4435 65.1162 56.4794 65.4205 56.1181 64.8186C55.7924 64.2755 56.0145 63.399 55.9995 62.6692C55.9947 62.4355 56.0103 62.2013 56.0053 61.9674C55.9947 61.4864 56.2377 61.2793 56.7002 61.2831C57.4266 61.2886 58.1529 61.2791 58.8796 61.2892C59.4229 61.2969 59.6638 61.0592 59.6685 60.4961C59.6733 59.9269 59.5037 59.6076 58.883 59.6092C57.5756 59.6127 56.2681 59.6063 54.9604 59.572C54.2407 59.5534 53.9884 59.8761 53.9987 60.5788C54.0251 62.3919 54.0074 64.2059 54.009 66.0193C54.009 67.8914 54.0191 69.7636 54.0035 71.6354C53.9982 72.2408 54.1995 72.5659 54.85 72.5736C56.1564 72.5915 57.4625 72.6351 58.7678 72.692C59.3809 72.7185 59.6759 72.5136 59.6733 71.8449C59.6706 71.1763 59.4208 70.8568 58.7494 70.8849Z" stroke="white" stroke-width="2" mask="url(#path-1-inside-1_1785_357)"/>
<path d="M76.1605 59.8012C74.5316 59.8068 72.9024 59.7791 71.2741 59.7929C70.5345 59.7991 70.1581 60.477 70.5055 61.1318C70.7538 61.5994 71.2186 61.4793 71.6008 61.4551C72.4254 61.4019 72.7455 61.7254 72.7189 62.5717C72.6708 64.0926 72.7054 65.6162 72.7067 67.1385C72.7067 68.6903 72.7305 70.2426 72.6964 71.7936C72.68 72.538 72.8583 72.9352 73.7057 72.9381C74.5702 72.9411 74.7051 72.5114 74.7001 71.7833C74.6785 68.7094 74.7091 65.6348 74.68 62.561C74.6729 61.8166 74.9159 61.4556 75.6726 61.5011C75.8462 61.5117 76.0215 61.4856 76.1959 61.4891C76.8258 61.5013 76.9669 61.1304 76.964 60.5783C76.9611 60.0093 76.7004 59.7993 76.1605 59.8012Z" stroke="white" stroke-width="2" mask="url(#path-1-inside-1_1785_357)"/>
<path d="M94.8418 51.2396C97.009 51.213 98.6743 49.5323 98.6571 47.3892C98.64 45.2746 96.972 43.7568 94.6706 43.7614C92.4316 43.7659 90.6773 45.3977 90.7087 47.4456C90.7438 49.5222 92.6427 51.2664 94.8418 51.2396Z" stroke="white" stroke-width="2" mask="url(#path-1-inside-1_1785_357)"/>
<path d="M100.245 60.0633C99.7697 59.6723 98.6244 60.0997 98.5224 60.7189C98.1659 62.8801 97.8436 65.0468 97.4939 67.209C97.3238 68.2604 97.2607 69.3358 96.9506 70.3583L96.7237 70.3317C96.5972 69.5586 96.4651 68.7863 96.3457 68.0121C95.976 65.616 95.6215 63.2177 95.2364 60.8239C95.1075 60.0211 94.6131 59.7871 93.6516 59.995C92.9364 60.1495 93.1625 60.6663 93.2333 61.1097C93.7668 64.4558 94.3039 67.8012 94.8444 71.146C95.2142 73.4196 95.219 73.4087 97.5404 73.2785C98.0871 73.2479 98.3838 73.0658 98.4691 72.4766C98.6999 70.8871 98.9807 69.305 99.2401 67.7197C99.6077 65.4711 99.9823 63.2235 100.33 60.972C100.378 60.678 100.548 60.3122 100.245 60.0633Z" stroke="white" stroke-width="2" mask="url(#path-1-inside-1_1785_357)"/>
<path d="M104.518 61.8275C105.186 61.8336 105.854 61.8097 106.522 61.8238C107.113 61.836 107.54 61.7403 107.539 60.9818C107.539 60.2518 107.155 60.0981 106.545 60.0987C105.267 60.0987 103.984 60.1386 102.713 60.0357C101.928 59.9721 101.667 60.1888 101.681 60.9691C101.714 62.8692 101.692 64.7708 101.692 66.6709C101.692 68.6007 101.709 70.5306 101.683 72.4601C101.674 73.1328 101.918 73.4138 102.598 73.4029C103.963 73.3811 105.328 73.3989 106.694 73.4177C107.277 73.426 107.537 73.1833 107.535 72.5811C107.533 72.0034 107.322 71.7128 106.724 71.7001C105.999 71.6846 105.275 71.5937 104.551 71.5961C103.967 71.5974 103.689 71.3792 103.698 70.7781C103.711 69.9598 103.709 69.1412 103.693 68.3224C103.68 67.7167 103.979 67.4674 104.547 67.495C105.011 67.5177 105.474 67.5493 105.937 67.5897C106.57 67.645 106.83 67.3741 106.818 66.7251C106.807 66.1378 106.675 65.7553 105.996 65.7773C105.503 65.793 105.009 65.7571 104.515 65.7593C103.985 65.7614 103.698 65.5296 103.701 64.9739C103.705 64.1847 103.705 63.3953 103.701 62.6057C103.697 62.0455 103.988 61.8219 104.518 61.8275Z" stroke="white" stroke-width="2" mask="url(#path-1-inside-1_1785_357)"/>
<path d="M114.119 71.7562C113.626 71.7657 113.132 71.754 112.639 71.7524C111.176 71.7479 111.175 71.7482 111.173 70.3192C111.172 68.8581 111.171 67.397 111.171 65.9361C111.171 64.2705 111.155 62.6046 111.177 60.938C111.188 60.1548 110.702 60.12 110.136 60.1359C109.613 60.1505 109.035 60.0561 109.036 60.8734C109.04 64.8181 109.04 68.763 109.036 72.7079C109.036 73.1678 109.243 73.4241 109.71 73.4374C111.189 73.4793 112.668 73.5197 114.146 73.5586C114.757 73.5754 114.841 73.1865 114.843 72.6901C114.846 72.1712 114.785 71.7439 114.119 71.7562Z" stroke="white" stroke-width="2" mask="url(#path-1-inside-1_1785_357)"/>
<path d="M123.026 71.0561C122.752 72.5675 121.818 73.363 120.472 73.283C119.023 73.1968 118.044 72.2613 118.011 70.7286C117.955 68.0967 117.955 65.4638 118.011 62.8301C118.042 61.3147 118.931 60.4374 120.311 60.3589C121.813 60.2723 122.715 60.9733 123.016 62.4975C123.121 63.0337 123.167 63.5822 123.24 64.1248C123.461 63.407 123.417 62.7179 123.213 62.0365C122.86 60.8473 122.018 60.188 120.788 60.1436C118.787 60.0729 117.784 60.9502 117.738 62.984C117.679 65.4985 117.716 68.0156 117.725 70.5314C117.728 70.8531 117.769 71.1732 117.848 71.485C118.162 72.7459 119.226 73.5496 120.547 73.5469C121.904 73.5443 122.848 72.8501 123.229 71.5916C123.462 70.8206 123.42 70.0411 123.218 69.2459C123.155 69.85 123.133 70.4609 123.026 71.0561Z" stroke="white" stroke-width="2" mask="url(#path-1-inside-1_1785_357)"/>
<path d="M83.4074 66.3768C84.7708 65.0848 84.5418 63.4668 84.2914 61.865C84.1295 60.83 83.4623 60.2279 82.4578 59.9852C81.222 59.6863 79.9669 59.8456 78.7199 59.8203C78.2138 59.81 78.1066 60.1742 78.1063 60.5972C78.1063 64.4919 78.1053 68.3867 78.1031 72.2815C78.1016 73.0849 78.6438 73.0296 79.1837 73.0525C79.7801 73.0769 80.1367 72.8998 80.1082 72.2193C80.0817 71.6054 80.1026 70.9894 80.1026 70.3745H80.1071C80.1071 69.7595 80.1071 69.1445 80.1071 68.5295C80.1071 68.471 80.1137 68.4122 80.1111 68.354C80.0846 67.7718 80.3963 67.5891 80.9299 67.6131C81.9193 67.6575 82.3612 68.1849 82.4159 69.4879C82.4552 70.4237 82.4423 71.3616 82.4758 72.2977C82.512 73.2758 83.2642 73.0155 83.8353 73.0687C84.5014 73.1295 84.4916 72.7135 84.4761 72.2264C84.4462 71.2901 84.4832 70.3516 84.4496 69.4156C84.4172 68.4952 84.2695 67.6016 83.5017 66.9596C83.3044 66.7932 83.1633 66.6071 83.4074 66.3768ZM82.2917 64.9534C82.1179 65.6564 81.115 66.1001 80.4544 65.8212C80.1486 65.692 80.1192 65.4437 80.1155 65.176C80.1087 64.6788 80.1137 64.1811 80.1137 63.6837H80.1066C80.1066 63.362 80.0878 63.0388 80.1111 62.7184C80.1446 62.2574 79.9513 61.6531 80.745 61.6228C81.4552 61.5962 82.1121 61.6555 82.3094 62.5172C82.496 63.3191 82.49 64.1543 82.2917 64.9534Z" stroke="white" stroke-width="2" mask="url(#path-1-inside-1_1785_357)"/>
<path d="M30.735 65.0901C31.8863 64.1352 31.6317 62.8245 31.5757 61.5893C31.5229 60.4196 30.8951 59.7398 29.7546 59.4332C28.7245 59.1562 27.6724 59.3463 26.6344 59.2679C25.847 59.2086 25.5401 59.4968 25.5607 60.3154C25.6056 62.0966 25.5747 63.8805 25.5739 65.6633C25.5739 67.5338 25.5877 69.4047 25.5663 71.2747C25.5591 71.9021 25.7879 72.1935 26.4279 72.1805C27.4434 72.1594 28.4617 72.2007 29.4756 72.1616C30.422 72.1254 31.1307 71.6333 31.5636 70.7951C32.3103 69.3491 31.9426 66.8384 30.8198 65.6487C30.6389 65.457 30.4643 65.3148 30.735 65.0901ZM28.1027 61.0143C28.7649 60.9686 29.4014 61.0276 29.628 61.8307C29.8061 62.4624 29.8182 63.1044 29.6452 63.7303C29.4505 64.4361 28.5446 64.8221 27.8798 64.5509C27.6077 64.4398 27.5562 64.2404 27.5509 64.0009C27.5425 63.5931 27.5488 63.185 27.5488 62.778H27.5377C27.5377 62.5448 27.5243 62.3106 27.5406 62.0788C27.5721 61.6414 27.3874 61.0637 28.1027 61.0143ZM28.22 70.5159C27.7641 70.4628 27.5396 70.2594 27.5433 69.7904C27.5491 69.0311 27.5034 68.2692 27.552 67.5134C27.5784 67.0938 27.2372 66.4574 28.0692 66.3633C29.0309 66.2543 29.6803 66.576 29.8526 67.3485C29.94 67.7423 29.922 68.1599 29.9519 68.5664C29.9255 70.1767 29.487 70.6659 28.22 70.5159Z" stroke="white" stroke-width="2" mask="url(#path-1-inside-1_1785_357)"/>
<path d="M67.3684 69.0699C67.3607 68.1679 67.2128 67.3193 66.4767 66.6919C66.2884 66.5324 66.1225 66.3378 66.3845 66.1144C67.5874 65.0904 67.3716 63.6904 67.3409 62.3619C67.3018 60.6681 66.3547 59.7222 64.6664 59.6414C63.8251 59.6013 62.9786 59.6651 62.1389 59.6127C61.3571 59.5638 61.1175 59.9123 61.1276 60.6469C61.154 62.4895 61.1363 64.3327 61.1368 66.1767C61.1373 68.0206 61.1526 69.863 61.1286 71.7064C61.1194 72.4019 61.3579 72.7103 62.0853 72.7212C62.8272 72.7324 63.0589 72.4035 63.0486 71.7173C63.0309 70.5476 63.0612 69.3778 63.0533 68.2081C63.048 67.4488 63.4294 67.248 64.1154 67.3618C64.9939 67.5078 65.342 68.0733 65.3626 68.8971C65.389 69.9204 65.3534 70.9461 65.4041 71.9678C65.4503 72.8959 66.1838 72.7228 66.7775 72.7462C67.4247 72.7728 67.4252 72.3822 67.4001 71.88C67.3534 70.9434 67.3771 70.006 67.3684 69.0699ZM65.2741 64.7006C65.0847 65.5128 64.4162 65.6375 63.701 65.5899C62.8845 65.5367 63.0935 64.8942 63.0533 64.4095C63.0269 64.0918 63.0486 63.7715 63.0486 63.4506H63.0515C63.0515 63.1015 63.0367 62.7519 63.0549 62.4039C63.0787 61.9546 62.9799 61.4024 63.668 61.3607C64.356 61.319 65.0652 61.3572 65.2683 62.1949C65.4662 63.018 65.4685 63.8765 65.2749 64.7006H65.2741Z" stroke="white" stroke-width="2" mask="url(#path-1-inside-1_1785_357)"/>
<path d="M90.961 61.4232C90.7156 59.9697 90.7108 59.9705 89.2008 59.961C87.611 59.9498 87.616 59.9506 87.3736 61.5359C87.2367 62.431 87.0809 63.3232 86.9335 64.2165C86.4911 66.8963 86.0584 69.578 85.5989 72.2549C85.4932 72.8759 85.6868 73.1056 86.312 73.1123C87.0043 73.1205 87.3701 72.9046 87.485 72.1509C87.5582 71.6703 87.3545 70.8977 88.1311 70.7951C88.8413 70.702 89.6316 70.5686 90.2739 70.9043C90.7945 71.1763 90.6266 71.9 90.7494 72.428C90.7692 72.5133 90.7906 72.5989 90.8186 72.6816C91.1107 73.5427 91.8302 73.2133 92.377 73.1806C92.9705 73.1439 92.8458 72.6316 92.7776 72.2251C92.1728 68.6242 91.5672 65.0236 90.961 61.4232ZM89.6345 69.0854C89.2581 69.0886 88.8807 69.0931 88.5056 69.0668C88.21 69.0458 87.9945 68.8769 88.0421 68.5547C88.3297 66.6049 88.6319 64.6573 88.9295 62.7088L89.2182 62.7025C89.5254 64.6469 89.8365 66.5911 90.1366 68.5369C90.1918 68.9033 89.9868 69.0819 89.6345 69.0854Z" stroke="white" stroke-width="2" mask="url(#path-1-inside-1_1785_357)"/>
<path d="M130.941 66.953H130.918C130.918 65.5503 130.966 64.1453 130.904 62.7455C130.846 61.4404 130.095 60.5751 128.928 60.2768C126.734 59.7161 125.192 60.867 125.112 63.1887C125.059 64.7652 125.083 66.3455 125.102 67.9236C125.115 69.0027 124.988 70.0887 125.19 71.1601C125.533 72.9852 126.518 73.6964 128.503 73.5794C129.974 73.4935 130.868 72.5093 130.931 70.8094C130.978 69.5262 130.941 68.2389 130.941 66.953ZM130.675 66.9694C130.675 68.1969 130.699 69.4249 130.669 70.6515C130.628 72.2916 129.785 73.2633 128.395 73.3404C126.609 73.4395 125.629 72.7449 125.483 70.9743C125.257 68.2367 125.258 65.485 125.486 62.7477C125.624 61.081 126.602 60.3284 128.166 60.401C129.621 60.4674 130.591 61.4439 130.657 63.0249C130.712 64.3375 130.668 65.6543 130.668 66.9692L130.675 66.9694Z" stroke="white" stroke-width="2" mask="url(#path-1-inside-1_1785_357)"/>
</svg>
