<svg width="156" height="19" viewBox="0 0 156 19" fill="none" xmlns="http://www.w3.org/2000/svg">
<path d="M73.7027 0.0517327L62.5286 9.33867L73.7027 18.5978H81.9213L70.7731 9.36647L81.9213 0.0517327H73.7027ZM33.8803 12.3694V6.22449C33.8544 1.83127 31.3396 0.0517327 24.1322 0.0517327H6.60616V11.2572H13.2432V4.94545H22.9914C26.0766 4.94545 27.2692 5.55716 27.2692 8.08743V10.4509C27.2692 12.9811 26.0766 13.7597 23.0173 13.7319H6.58024L0.046875 18.57H24.1062L24.1322 18.5422C31.3396 18.5422 33.8544 16.7627 33.8803 12.3694ZM31.1063 18.5422H39.6618L45.9878 13.287H53.9212V9.19964H50.9137L55.4508 5.44594L55.4249 18.57H61.9323V0.0239258H53.3767L31.1063 18.5422ZM82.9583 18.5422H89.4658V0.0517327H82.9583V18.5422ZM149.277 13.7875H133.566C130.481 13.7875 128.899 13.3148 128.899 11.2016H149.303V6.22449C149.303 1.80346 146.555 0.0239258 138.751 0.0239258H121.873V12.286C121.873 16.707 124.621 18.5144 132.425 18.5144H155.603L149.277 13.7875ZM137.973 4.50056C141.059 4.50056 142.485 4.94545 142.666 7.05865H128.873V4.50056H137.973ZM113.784 0.0517327V13.4538L101.081 0.0517327H90.9436V18.57H97.451V5.14009L110.181 18.57H120.318V0.0517327H113.784Z" fill="white"/>
</svg>
