<svg width="65" height="99" viewBox="0 0 65 99" fill="none" xmlns="http://www.w3.org/2000/svg">
<path d="M64.6463 19.8613V18.1497H0.5V59.8417C0.805979 62.036 0.980819 64.2303 1.45072 66.4246C3.07624 73.5603 7.14955 79.8948 12.9577 84.3193C19.274 89.3991 25.9509 94.0291 32.4748 98.8456C32.4748 98.8456 32.6278 98.8456 32.7589 98.8456L36.0373 96.4428C41.4465 92.4272 47.0416 88.6311 52.2433 84.3741C56.3312 81.1655 59.5951 77.0213 61.7623 72.2878C63.9295 67.5543 64.9371 62.3689 64.701 57.1646C64.4715 44.7229 64.6463 32.2921 64.6463 19.8613ZM31.0214 94.0839C22.5742 87.9069 13.5369 82.86 7.59215 73.6658C10.2514 73.6908 12.8337 72.7696 14.881 71.0656C15.7958 70.3671 16.9211 70.0036 18.07 70.0355C19.2189 70.0675 20.3224 70.4928 21.1973 71.2411C22.5169 72.4154 24.1382 73.1944 25.8769 73.4892C27.6156 73.784 29.4018 73.5829 31.0323 72.9088L31.0214 94.0839ZM31.0761 69.0907C31.0761 69.3869 30.5515 69.738 30.2018 69.9136C29.1231 70.4955 27.8931 70.7328 26.6764 70.5935C25.4597 70.4543 24.3144 69.9453 23.3938 69.1346C22.2644 68.1395 20.8854 67.4735 19.4062 67.2086C17.9269 66.9437 16.4037 67.0899 15.0012 67.6315C14.0893 68.0872 13.2028 68.5927 12.3458 69.1456C11.3882 69.761 10.3358 70.2132 9.23132 70.4841C6.73978 70.7693 5.53772 70.5499 5.00226 68.0484C4.81648 67.1487 4.49958 66.271 4.14989 65.0641C5.8701 65.8741 7.7884 66.1624 9.66943 65.8934C11.5504 65.6244 13.3124 64.81 14.739 63.5501C15.6186 62.8422 16.7093 62.4509 17.8366 62.439C18.9639 62.4271 20.0626 62.7951 20.9569 63.4842C22.3175 64.7017 23.9883 65.5158 25.7828 65.8355C27.5773 66.1551 29.425 65.9678 31.1197 65.2945C31.1197 66.666 31.1744 67.8838 31.0761 69.0907ZM29.8849 62.5078C28.8491 62.9785 27.7021 63.1469 26.5754 62.9936C25.4487 62.8403 24.3877 62.3715 23.514 61.641C22.3038 60.5744 20.8145 59.8785 19.2226 59.6354C17.6306 59.3924 16.0026 59.6124 14.5313 60.2695C13.6858 60.6682 12.8899 61.1654 12.16 61.7507C11.0179 62.6369 9.60181 63.0917 8.15948 63.0355C6.71716 62.9794 5.34043 62.4158 4.27011 61.4435C3.92818 61.1451 3.70665 60.7315 3.64722 60.2805C3.64722 56.2978 3.64722 52.3042 3.64722 48.3215C3.64722 48.2447 3.7237 48.1789 3.80019 48.0253H31.1197C31.1197 48.4422 31.1963 48.8591 31.1963 49.2651C31.1963 53.0393 31.1963 56.8135 31.1963 60.5877C31.2387 61.0091 31.13 61.4318 30.8896 61.7798C30.6492 62.1278 30.2929 62.3782 29.8849 62.4858V62.5078ZM61.204 63.6049C60.6795 69.5296 57.74 74.4777 53.7513 78.7786C52.4072 80.2268 50.9428 81.5653 49.2599 83.1672V73.7097L54.1447 75.2128V72.0201C53.328 72.0321 52.5215 71.8373 51.7996 71.4538C51.0776 71.0703 50.4636 70.5104 50.014 69.8258C49.6296 69.0459 49.3222 68.2301 49.096 67.3901L54.1775 68.8603V65.8431C50.3527 64.6033 49.3802 63.6488 49.3146 61.1034L54.1884 62.5736V59.4028C51.0412 59.1285 49.3911 57.3731 49.096 54.2681H46.3204C46.0362 57.3292 44.4408 59.0846 41.2717 59.3918V62.5736L46.0581 61.1253C46.2548 63.4513 44.9653 64.7899 41.2389 65.8102V68.8493L46.0253 67.4888C46.375 69.6832 44.5282 71.5702 41.2499 72.064V75.2019L46.1237 73.7865C46.1815 74.0501 46.218 74.318 46.2329 74.5875C46.2329 77.879 46.2329 81.2801 46.2329 84.6154C46.2303 84.8586 46.1785 85.0987 46.0809 85.3212C45.9832 85.5437 45.8416 85.744 45.6647 85.9101C42.0366 88.5542 38.3649 91.1326 34.7369 93.7109C34.5868 93.7756 34.4287 93.8199 34.267 93.8426V47.9704H61.4663C61.5538 48.0802 61.663 48.1459 61.6521 48.2008C61.4991 53.3684 61.663 58.5031 61.204 63.6049ZM60.2643 44.9532C41.84 44.9532 23.4157 44.9532 4.99135 44.9532C3.89857 44.9532 3.53794 44.679 3.54887 43.527C3.60351 36.5381 3.54887 29.5491 3.54887 22.5602C3.54887 22.1433 3.54888 21.7264 3.62538 21.2327H61.5428C61.5428 21.7155 61.6193 22.1323 61.6193 22.5492C61.6193 29.5381 61.6193 36.5271 61.6193 43.516C61.7067 44.5912 61.4008 44.9532 60.2643 44.9532Z" fill="white"/>
<path d="M32.8793 25.6433C31.6075 25.5546 30.349 25.9503 29.3547 26.7514C28.3603 27.5525 27.703 28.7003 27.5138 29.9661C27.2734 32.8078 27.4591 35.6823 27.4591 38.6117H37.8406C37.8406 35.803 37.9061 33.126 37.8406 30.4928C37.7529 29.2132 37.1983 28.0109 36.283 27.1161C35.3676 26.2214 34.1558 25.697 32.8793 25.6433ZM30.4643 35.6165C30.4643 33.8172 30.3659 32.0398 30.4643 30.2734C30.5787 29.755 30.8764 29.2959 31.3022 28.9811C31.728 28.6663 32.2531 28.5172 32.7801 28.5614C33.307 28.6056 33.8001 28.8401 34.168 29.2215C34.5359 29.6028 34.7536 30.1052 34.7808 30.6354C34.89 32.2483 34.89 33.8611 34.89 35.6165H30.4643Z" fill="white"/>
<path d="M15.2199 25.6433C13.9918 25.6625 12.8118 26.1257 11.8964 26.948C10.9811 27.7703 10.3918 28.8964 10.2368 30.1197C10.0948 32.8955 10.2368 35.6933 10.2368 38.6007H20.6073C20.6073 35.7591 20.7822 32.9724 20.6073 30.2185C20.4665 28.9071 19.8284 27.7005 18.8254 26.8487C17.8223 25.9969 16.5313 25.5653 15.2199 25.6433ZM13.2529 35.5945C13.2529 33.8281 13.1546 32.0837 13.2529 30.3502C13.3434 29.8456 13.6168 29.3925 14.0204 29.0784C14.424 28.7644 14.9292 28.6116 15.4385 28.6495C16.0129 28.6661 16.5593 28.9026 16.9656 29.3106C17.372 29.7186 17.6075 30.2671 17.624 30.8438C17.7224 32.3469 17.6677 33.8939 17.6677 35.5945H13.2529Z" fill="white"/>
<path d="M50.09 25.6432C48.7649 25.5475 47.4544 25.9723 46.4351 26.8278C45.4158 27.6834 44.7672 28.9029 44.6261 30.2293C44.4076 32.9832 44.6261 35.77 44.6261 38.6116H55.0404C55.0404 35.9346 55.0404 33.4001 55.0404 30.9315C55.0617 29.5769 54.5568 28.2673 53.6327 27.2801C52.7086 26.2929 51.438 25.7058 50.09 25.6432ZM52.0243 35.5944H47.6531C47.6531 33.8719 47.5657 32.1714 47.6531 30.4927C47.7268 29.9513 48.0051 29.4592 48.4302 29.1181C48.8554 28.777 49.3949 28.6131 49.937 28.6604C50.4589 28.645 50.9664 28.8328 51.3534 29.1845C51.7404 29.5363 51.9769 30.0247 52.0134 30.5475C52.1117 32.2043 52.0243 33.8719 52.0243 35.5944Z" fill="white"/>
<path d="M9.28665 9.48207C9.79172 9.25537 10.2398 8.91793 10.598 8.4946C10.9496 8.06413 11.2133 7.56831 11.3739 7.03543C11.5437 6.44722 11.6283 5.83751 11.6252 5.2251C11.6365 4.55676 11.5293 3.89176 11.3083 3.26121C11.121 2.73212 10.8229 2.24945 10.4341 1.84583C10.0609 1.46174 9.60473 1.16897 9.10087 0.990084C8.58071 0.793438 8.02839 0.696662 7.47263 0.704813H3.50583V9.83317H7.47263C8.09514 9.84523 8.71322 9.7256 9.28665 9.48207ZM5.9318 7.70468V2.8333H7.02459C7.39776 2.81922 7.7698 2.8827 8.11737 3.0198C8.37478 3.11935 8.60111 3.28598 8.77305 3.50255C8.9445 3.7391 9.06709 4.00772 9.13365 4.29254C9.2148 4.65254 9.25515 5.0206 9.25387 5.3897C9.26146 5.76209 9.20604 6.13308 9.08996 6.48685C8.9998 6.74649 8.85858 6.98523 8.6747 7.18898C8.51285 7.35648 8.31464 7.48418 8.09552 7.56205C7.8705 7.64026 7.63425 7.68101 7.39613 7.68272L5.9318 7.70468Z" fill="white"/>
<path d="M22.0163 7.6938H17.4047V6.14681H21.5464V4.12804H17.4047V2.83339H21.9179V0.704907H14.9788V9.83326H22.0163V7.6938Z" fill="white"/>
<path d="M25.787 8.46183C26.1296 8.88557 26.5532 9.23623 27.0328 9.49316C27.4054 9.70531 27.8123 9.85015 28.2348 9.92107L27.7977 10.5684L28.2786 10.9304L28.4971 10.8426C29.8194 10.6452 29.5134 11.6326 28.3769 11.2157C28.2348 11.1608 28.0928 11.1279 27.9726 11.0731L27.7212 10.9633L27.2513 12.0605L27.5245 12.1592L27.8524 12.2799L28.1911 12.3677H29.0981C29.293 12.3675 29.4873 12.3455 29.6773 12.3019C29.872 12.2595 30.0573 12.1814 30.2237 12.0715C30.3914 11.946 30.5295 11.7849 30.628 11.5997C30.7308 11.3765 30.7794 11.1322 30.7701 10.8866C30.7721 10.7061 30.7268 10.5283 30.6389 10.3709C30.5537 10.2298 30.438 10.1097 30.3002 10.0198C30.2164 9.96574 30.1288 9.91806 30.0379 9.87714C30.2983 9.83462 30.5544 9.76853 30.8029 9.67966C31.2607 9.51257 31.6806 9.25517 32.0377 8.92262C32.391 8.58942 32.6767 8.19077 32.8792 7.74865C33.0994 7.26005 33.2325 6.73648 33.2725 6.20169V5.90543H30.9121V6.14684C30.8711 6.6051 30.6876 7.03881 30.3876 7.38664C30.2394 7.53882 30.06 7.65687 29.8619 7.73265C29.6638 7.80842 29.4517 7.84006 29.2402 7.82546C28.9143 7.83804 28.5907 7.76625 28.3004 7.617C28.0493 7.48105 27.8353 7.28516 27.6775 7.04652C27.5051 6.79441 27.3826 6.51129 27.3169 6.21267C27.2326 5.89049 27.1921 5.55829 27.1967 5.2252C27.1922 4.87766 27.2327 4.531 27.3169 4.19387C27.3873 3.88996 27.5093 3.60051 27.6775 3.33812C27.8597 3.14335 28.084 2.99317 28.3332 2.89923C28.5668 2.78166 28.8212 2.71147 29.0818 2.69265C29.3424 2.67382 29.6042 2.70675 29.8522 2.78954C30.0269 2.85258 30.1896 2.94537 30.333 3.06383C30.6195 3.28564 30.8142 3.60607 30.8793 3.96344V4.19387H33.2398V3.8867C33.1887 3.38559 33.0363 2.90017 32.7917 2.46034C32.5727 2.05443 32.2712 1.69937 31.9066 1.4181C31.5446 1.13039 31.1336 0.911029 30.6936 0.770745C29.6156 0.442617 28.4581 0.49687 27.4152 0.924363C26.8732 1.16123 26.3885 1.51306 25.9946 1.95569C25.6083 2.40481 25.3082 2.9219 25.1095 3.48076C24.909 4.08558 24.8093 4.71944 24.8144 5.35685C24.8111 5.93689 24.8958 6.51404 25.0658 7.06842C25.2244 7.57114 25.4684 8.04257 25.787 8.46183Z" fill="white"/>
<path d="M38.7585 7.92422H41.567L42.2117 9.83326H44.7251L41.3484 0.704907H39.0426L35.6113 9.83326H38.0919L38.7585 7.92422ZM40.1791 3.88669L40.8894 5.97125H39.4361L40.1791 3.88669Z" fill="white"/>
<path d="M49.9812 4.93995L53.1394 10.0417H55.4451V0.913387H53.1394V6.01517L49.9703 0.913387H47.6754V10.0417H49.9812V4.93995Z" fill="white"/>
<path d="M61.6953 0.913387H59.2693V10.0417H61.6953V0.913387Z" fill="white"/>
</svg>
