<svg width="68" height="99" viewBox="0 0 68 99" fill="none" xmlns="http://www.w3.org/2000/svg">
<path d="M67.8188 18.0305C67.7844 17.6517 67.6191 17.2975 67.3521 17.0305C67.0851 16.7635 66.7337 16.6011 66.36 16.5718H2.10047C1.69978 16.5771 1.3163 16.7379 1.02898 17.0214C0.741662 17.3049 0.57239 17.6894 0.555955 18.0958C0.555955 18.2264 0.555955 18.3462 0.555955 18.5312V64.5777C0.540525 66.4498 0.666 68.3203 0.931339 70.173C1.40774 73.3698 2.35886 76.4748 3.75229 79.3822C5.58154 83.4087 8.25786 86.9795 11.593 89.8434L12.2687 90.4203C13.1566 91.2042 14.0916 91.9313 15.0682 92.5975C17.703 94.3491 20.5329 95.7778 23.4989 96.8538C26.8908 98.1365 30.4767 98.8105 34.0962 98.8459H35.0937C38.111 98.7077 41.0972 98.1661 43.9749 97.2348C45.8558 96.5832 47.6876 95.7937 49.4558 94.8726L50.1208 94.5461C51.6285 93.7756 53.0645 92.8683 54.4112 91.8355C57.221 89.8106 59.6849 87.3321 61.7049 84.4985C63.8426 81.4909 65.4637 78.138 66.4995 74.5817C67.4523 71.3288 67.9187 67.9493 67.8831 64.5559V18.5312C67.8402 18.368 67.8295 18.2047 67.8188 18.0305ZM65.2016 19.2497V44.8419L58.4656 41.1082C58.2363 40.9767 57.9782 40.9055 57.7149 40.9013C57.3755 40.9051 57.047 41.0239 56.7817 41.2388L54.969 42.643L54.4649 42.0117C54.3445 41.8274 54.1864 41.6717 54.0012 41.5552C53.8161 41.4388 53.6084 41.3643 53.3923 41.3368C53.1783 41.323 52.9638 41.3546 52.7625 41.4296C52.5613 41.5046 52.3776 41.6212 52.2232 41.7722L51.0969 42.741L50.5392 42.2729L50.0458 41.8702L49.3271 41.2715C49.1598 41.1246 48.962 41.018 48.7484 40.9595C48.5348 40.9011 48.311 40.8924 48.0936 40.934C48.0936 40.6619 48.0936 40.3897 48.0936 40.1176C48.1074 39.9204 48.0799 39.7226 48.0132 39.5369C47.9464 39.3512 47.8418 39.1819 47.7061 39.0401C47.5704 38.8983 47.4068 38.7872 47.2259 38.714C47.045 38.6408 46.8509 38.6072 46.6564 38.6154H40.7892L24.7002 38.5283H21.772C21.3761 38.5137 20.9906 38.6584 20.6994 38.931C20.5586 39.0733 20.4479 39.2432 20.3742 39.4304C20.3004 39.6176 20.2651 39.8181 20.2703 40.0196C20.2703 40.3244 20.2703 40.6401 20.2703 40.9557C20.0504 40.907 19.8224 40.9091 19.6033 40.9619C19.3842 41.0146 19.1796 41.1167 19.0047 41.2606L17.1813 42.7083L15.7333 41.4674C15.6253 41.3755 15.5006 41.3061 15.3663 41.2632C15.2319 41.2202 15.0906 41.2045 14.9502 41.217C14.667 41.2409 14.4047 41.378 14.2209 41.598L13.395 42.5886L12.6442 41.9681L11.6574 41.1626C11.4294 40.997 11.1619 40.8965 10.8827 40.8716C10.6035 40.8467 10.3228 40.8983 10.0699 41.0211L8.0856 42.1096L3.16237 44.6895V19.2497H65.2016ZM45.3478 49.3377H45.2834L44.8543 49.6099C44.6208 49.7543 44.4281 49.9574 44.2947 50.1996C44.1612 50.4418 44.0917 50.7149 44.0928 50.9924L43.8354 77.216H37.9468V76.4867C37.9468 75.213 37.9468 73.9068 37.9468 72.6114C37.965 72.001 37.8392 71.3951 37.5798 70.844C37.3205 70.293 36.9352 69.8128 36.4559 69.4436C35.9586 69.0507 35.3757 68.7845 34.7561 68.6671C34.1366 68.5497 33.4984 68.5845 32.8949 68.7687C32.0849 68.9912 31.3711 69.4811 30.8661 70.1612C30.3611 70.8413 30.0936 71.6728 30.1061 72.5243V77.216H23.6705L23.9065 60.4521C23.9065 57.3932 23.9923 54.1274 24.0459 50.8182C24.0612 50.5175 23.9891 50.2189 23.8384 49.9596C23.6877 49.7002 23.4652 49.4915 23.1986 49.3595L22.7803 49.1091C22.7803 47.4218 22.8446 45.702 22.866 44.1235V41.1408L45.3906 41.2606L45.2727 48.8806L45.3478 49.3377ZM3.14089 47.6178L8.78279 44.6678L10.0914 43.9929L10.6491 43.699L12.0113 44.7875L12.9767 45.5713C13.1962 45.7438 13.4732 45.8232 13.7492 45.7928C14.0253 45.7623 14.2789 45.6244 14.4569 45.408L15.2506 44.4392L16.4626 45.5278C16.6545 45.6879 16.8953 45.7754 17.1437 45.7754C17.3922 45.7754 17.6329 45.6879 17.8248 45.5278L20.0665 43.7534L20.2811 43.884C20.2811 45.1903 20.2811 46.5183 20.2167 47.8137H3.14089V47.6178ZM3.14089 63.5V50.4807H20.3025C20.5135 50.8787 20.8607 51.1847 21.2786 51.3407L21.3966 51.4061C21.3966 51.983 21.3966 52.5708 21.3966 53.1477L21.2786 61.4535C21.2786 62.1176 21.2786 62.8142 21.2786 63.5H3.14089ZM58.1225 86.36L57.4253 87.1111H57.318C56.3521 86.969 55.3673 87.0433 54.4327 87.3288C53.8618 87.5391 53.3062 87.7901 52.7701 88.0799H52.7058C51.7864 88.5724 50.7873 88.8932 49.7561 89.027C48.2657 89.2112 46.7572 88.8897 45.4657 88.1126C44.5475 87.5038 43.5194 87.0857 42.441 86.8825C42.0113 86.8182 41.5776 86.7855 41.1432 86.7845C40 86.7787 38.8717 87.0472 37.8503 87.5683C37.3029 87.8561 36.7408 88.1141 36.1663 88.3412C34.4292 88.9797 32.5221 88.9526 30.8033 88.265C30.4728 88.1318 30.1536 87.9716 29.8487 87.786C29.6556 87.6772 29.4625 87.5683 29.2587 87.4704C27.9676 86.7556 26.4982 86.4415 25.0327 86.5668C24.0167 86.6764 23.0342 86.9989 22.1474 87.5139C20.5319 88.4787 18.6274 88.8189 16.7844 88.4718C16.3148 88.3708 15.8652 88.1905 15.4544 87.9384L15.0682 87.7425L14.4783 87.4268C14.2209 87.2853 13.9635 87.1437 13.6953 87.024C12.6521 86.5493 11.5116 86.3365 10.3702 86.4035C10.3292 86.4077 10.2877 86.4008 10.2501 86.3836C10.2124 86.3664 10.1799 86.3395 10.1557 86.3056L9.41562 85.4347L9.29765 85.2932C10.8885 85.0478 12.515 85.3222 13.942 86.077L14.06 86.1423C14.7279 86.5663 15.4496 86.8959 16.2052 87.122C17.8604 87.5913 19.6205 87.5073 21.225 86.8825C21.5467 86.7519 21.8578 86.5995 22.1581 86.4471C22.4585 86.2947 22.8553 86.1096 23.2307 85.9681C24.1735 85.5669 25.1918 85.3812 26.2132 85.4245C27.2347 85.4678 28.2342 85.7389 29.1408 86.2185C29.7522 86.545 30.385 86.839 31.0071 87.122L31.2001 87.2199C31.7309 87.4609 32.303 87.594 32.8841 87.6118H33.0879C33.6135 87.6118 34.1605 87.6118 34.6968 87.6118C35.3261 87.5586 35.9405 87.389 36.5095 87.1111H36.6168C37.4748 86.7519 38.1506 86.458 38.762 86.1532C39.7735 85.7062 40.8871 85.5518 41.9798 85.7068C43.1672 85.8509 44.3112 86.2478 45.337 86.8716L45.7017 87.0784C46.1817 87.3855 46.7067 87.6133 47.257 87.7533C48.8876 88.1441 50.5989 87.9914 52.1373 87.3179L52.6629 87.0675L53.5639 86.643C54.8997 85.9277 56.4375 85.7009 57.9187 86.0007L58.3477 86.077H58.4442L58.1225 86.36ZM60.7074 83.0399C60.5036 83.3338 60.2998 83.6386 60.0745 83.9325L59.3774 84.8142L58.7338 85.6415C58.7338 85.6415 58.7338 85.6959 58.6158 85.6415C57.6386 85.415 56.6331 85.3416 55.634 85.4238C54.7236 85.5772 53.8435 85.8785 53.0276 86.3164L52.2124 86.6866C51.9979 86.7736 51.7726 86.8607 51.5581 86.9696C50.4301 87.4023 49.2139 87.5445 48.0185 87.3833H47.9434C47.244 87.3188 46.5687 87.0916 45.9699 86.7192L45.5838 86.5124C45.2084 86.3165 44.8329 86.1096 44.4468 85.9245C43.9768 85.7011 43.4887 85.519 42.988 85.3803C42.5125 85.2705 42.0275 85.2085 41.54 85.1952C41.2933 85.1952 41.0252 85.1952 40.7677 85.1952C40.3097 85.1854 39.8533 85.2516 39.4163 85.3912C39.1053 85.5 38.8049 85.6307 38.5046 85.7504L37.2925 86.2729L35.3941 87.0458C34.7228 87.2457 34.0184 87.3049 33.3239 87.2199C32.8274 87.1761 32.3334 87.1071 31.8437 87.0131C31.7326 86.98 31.6248 86.9363 31.5219 86.8825L31.3289 86.7845L31.0178 86.6757C30.8462 86.5995 30.6746 86.545 30.5137 86.4579L29.9023 86.1532L29.1622 85.783C28.3341 85.3445 27.4239 85.0885 26.4914 85.0319C25.5533 84.9902 24.6141 85.0855 23.7027 85.3149C23.336 85.4314 22.9776 85.5733 22.6301 85.7395L22.1903 85.9245L21.4824 86.2403C21.0855 86.4253 20.6672 86.6104 20.2596 86.7519C19.8592 86.8726 19.4439 86.9348 19.0261 86.9369C18.4469 86.9369 17.8355 86.9369 17.0954 86.9369C16.8792 86.912 16.6668 86.8609 16.4626 86.7845L16.3232 86.7301H16.1516C15.8549 86.6461 15.5645 86.5406 15.2827 86.4144C15.0039 86.2838 14.725 86.1205 14.4569 85.979C14.1887 85.8374 13.8884 85.6633 13.5988 85.5218C12.8986 85.1855 12.1411 84.9897 11.3678 84.9449C10.5797 84.8633 9.78543 84.8633 8.99732 84.9449C8.93283 84.9122 8.8775 84.8635 8.83644 84.8034C8.4503 84.2917 8.06415 83.7148 7.67801 83.2249C7.52784 83.0181 7.38841 82.8004 7.24898 82.5935L7.17389 82.4847C7.10953 82.3758 7.03446 82.267 6.98082 82.1581L7.81745 81.7771H7.90325C8.78736 81.4416 9.72704 81.2827 10.6706 81.309C11.3328 81.2973 11.9924 81.3966 12.6227 81.603C13.248 81.8106 13.8516 82.0804 14.4247 82.4085L14.9932 82.7024C15.9085 83.1831 16.923 83.4368 17.9535 83.4426H18.2002C18.6646 83.4698 19.1302 83.4698 19.5946 83.4426C20.3506 83.3478 21.0801 83.0998 21.7398 82.7133L21.9114 82.6153C22.5791 82.2118 23.302 81.911 24.0567 81.7227C25.3185 81.4513 26.6248 81.4774 27.8751 81.7989C28.5267 82.0099 29.1527 82.2947 29.7414 82.6479L29.9988 82.7895L30.149 82.8657C30.5112 83.0783 30.8917 83.2568 31.286 83.3991C31.8026 83.5462 32.3297 83.6517 32.8627 83.7148C34.0414 83.8574 35.2366 83.7118 36.3486 83.2902C36.8947 83.0701 37.4252 82.8118 37.9361 82.5173C39.1191 81.8887 40.4583 81.6274 41.7867 81.7662H41.9691C42.2871 81.7859 42.6029 81.8332 42.9129 81.9077C43.4161 82.0774 43.9101 82.2737 44.3931 82.4956L45.2834 82.9201C45.7661 83.1487 46.2595 83.3882 46.7636 83.5842C47.2859 83.7724 47.8306 83.8895 48.3832 83.9325C49.3667 84.045 50.3624 83.9561 51.3114 83.6712C51.68 83.5384 52.0385 83.3783 52.384 83.1922C53.1939 82.7373 54.0498 82.3723 54.9368 82.1037C55.2476 82.0114 55.568 81.9567 55.8914 81.9404C56.5429 81.922 57.1948 81.9438 57.8436 82.0057C58.5968 82.119 59.3236 82.3698 59.9888 82.7459L60.3427 82.931L60.6216 83.0834L60.7074 83.0399ZM65.2016 63.4891H46.592L46.6885 52.9736C46.6885 52.5164 46.6885 52.0592 46.6885 51.5911L47.1497 51.2863C47.4462 51.1113 47.6794 50.8442 47.8147 50.5243H48.4154L61.3724 50.6331H65.148V63.4891H65.2016ZM65.2016 47.9988L47.9113 47.8573V43.8949L48.1258 43.7861L49.4987 44.8746L50.3568 45.5713C50.5479 45.7286 50.7865 45.8145 51.0325 45.8145C51.2786 45.8145 51.5172 45.7286 51.7083 45.5713L52.9954 44.4827L53.7891 45.4733C53.9655 45.6914 54.2185 45.8314 54.4946 45.8639C54.7707 45.8964 55.0484 45.8188 55.2693 45.6475L56.1274 44.9944L57.7255 43.7534C60.0316 45.0379 62.3807 46.3333 64.6546 47.5743L65.148 47.8464L65.2016 47.9988Z" fill="white"/>
<path d="M9.28725 34.6529H11.9688C12.0715 34.6573 12.174 34.6403 12.2699 34.6028C12.3658 34.5654 12.4532 34.5083 12.5265 34.4352C12.5928 34.3563 12.6423 34.2643 12.6718 34.165C12.7014 34.0657 12.7103 33.9613 12.6981 33.8583C12.692 33.7749 12.692 33.6912 12.6981 33.6079C12.6981 33.4664 12.6981 33.314 12.6981 33.1616C12.6136 32.5238 12.3142 31.9353 11.8508 31.496C11.5988 31.2477 11.2737 31.09 10.9251 31.0467C10.5765 31.0035 10.2235 31.0772 9.92008 31.2566C9.56785 31.4531 9.28618 31.758 9.11563 32.1274C8.83686 32.6768 8.68638 33.2839 8.67586 33.9018C8.66646 33.9979 8.67689 34.095 8.70643 34.1868C8.73597 34.2787 8.784 34.3632 8.84748 34.4352C8.90247 34.4998 8.9698 34.5524 9.04538 34.5898C9.12097 34.6272 9.20325 34.6487 9.28725 34.6529ZM10.2311 32.4758C10.2727 32.4081 10.3292 32.3512 10.3962 32.3096C10.4633 32.268 10.539 32.2429 10.6173 32.2363C10.7695 32.247 10.9118 32.3172 11.0142 32.4322C11.2589 32.6981 11.4098 33.0388 11.4432 33.401H9.84499C9.89799 33.0754 10.0308 32.7684 10.2311 32.5084V32.4758Z" fill="white"/>
<path d="M42.2058 24.8885H44.8873C44.9851 24.8941 45.083 24.8796 45.1751 24.846C45.2672 24.8123 45.3518 24.7601 45.4236 24.6926C45.5491 24.5528 45.6181 24.3701 45.6167 24.181C45.638 23.3919 45.3834 22.6207 44.898 22.0039C44.7002 21.7268 44.4236 21.5178 44.1053 21.4049C43.787 21.292 43.4423 21.2807 43.1175 21.3725C42.87 21.4497 42.6402 21.576 42.4414 21.7442C42.2425 21.9124 42.0786 22.1191 41.9591 22.3522C41.6859 22.9154 41.5359 23.5317 41.5193 24.1592C41.5085 24.2546 41.5172 24.3512 41.5449 24.443C41.5725 24.5348 41.6187 24.6197 41.6802 24.6926C41.8234 24.8253 42.0121 24.8956 42.2058 24.8885ZM43.1068 22.7114C43.1961 22.5897 43.3255 22.5047 43.4715 22.472C43.6197 22.4718 43.7621 22.5303 43.8683 22.6352C44.1469 22.905 44.3186 23.269 44.351 23.6585H42.7528C42.7916 23.3245 42.9134 23.0061 43.1068 22.7332V22.7114Z" fill="white"/>
<path d="M59.0562 38.8005C59.1329 38.8778 59.2257 38.9365 59.3279 38.9723C59.43 39.0081 59.5388 39.0201 59.6461 39.0074H60.7187C60.7647 39.0174 60.8122 39.0174 60.8582 39.0074H62.3061C62.4125 39.0127 62.5186 38.9939 62.6169 38.9525C62.7152 38.9111 62.8033 38.848 62.8746 38.7678C62.9449 38.6892 62.9967 38.5955 63.0264 38.4938C63.0561 38.392 63.0629 38.2848 63.0462 38.18C63.0462 38.1147 63.0462 38.0603 63.0462 37.995C63.0568 37.8755 63.0568 37.7552 63.0462 37.6357C63.0131 37.2642 62.9068 36.9031 62.7336 36.574C62.5604 36.2449 62.3239 35.9544 62.038 35.7199C61.8513 35.5745 61.6353 35.4728 61.4054 35.422C61.1755 35.3712 60.9373 35.3725 60.708 35.4259C60.4247 35.493 60.1608 35.6264 59.9373 35.8154C59.7138 36.0044 59.5369 36.2438 59.4208 36.5145C59.1755 37.0283 59.0368 37.5878 59.0132 38.1582C58.9698 38.2611 58.9511 38.373 58.9586 38.4846C58.966 38.5962 58.9995 38.7045 59.0562 38.8005ZM60.6544 36.7431C60.7364 36.6626 60.8459 36.6177 60.96 36.6177C61.0741 36.6177 61.1837 36.6626 61.2658 36.7431C61.559 37.0314 61.7383 37.4186 61.7698 37.8317H60.1717C60.2156 37.4152 60.406 37.0287 60.708 36.7431H60.6544Z" fill="white"/>
<path d="M13.041 30.6144H15.6581C15.7549 30.6171 15.8512 30.6002 15.9414 30.5647C16.0316 30.5292 16.114 30.4757 16.1837 30.4076C16.2473 30.3313 16.2952 30.2429 16.3247 30.1476C16.3541 30.0522 16.3645 29.9519 16.3553 29.8524V29.7436C16.3602 29.6529 16.3602 29.5621 16.3553 29.4715C16.3058 28.8304 16.0665 28.2195 15.6689 27.7189C15.493 27.5011 15.2697 27.3278 15.0165 27.2125C14.7634 27.0973 14.4873 27.0433 14.2101 27.0549C13.9353 27.075 13.6692 27.1616 13.4341 27.3074C13.199 27.4532 13.0017 27.654 12.8587 27.893C12.498 28.4893 12.3051 29.1745 12.3009 29.8742C12.288 29.9772 12.2967 30.0818 12.3262 30.1812C12.3558 30.2806 12.4056 30.3726 12.4725 30.4512C12.5518 30.5155 12.6429 30.563 12.7405 30.591C12.8381 30.6191 12.9403 30.627 13.041 30.6144ZM13.942 28.4373C13.9819 28.3781 14.0345 28.3289 14.0958 28.2931C14.157 28.2573 14.2255 28.2358 14.2959 28.2305C14.3739 28.2227 14.4524 28.2357 14.5239 28.2681C14.5954 28.3006 14.6573 28.3514 14.7035 28.4156C14.9511 28.6917 15.1118 29.0367 15.1648 29.4061H13.5129C13.5543 29.0429 13.704 28.701 13.942 28.4264V28.4373Z" fill="white"/>
<path d="M23.2205 24.8885H25.9021C25.9948 24.8921 26.0872 24.8766 26.1739 24.843C26.2605 24.8093 26.3396 24.7581 26.4062 24.6925C26.4702 24.629 26.5204 24.5527 26.5536 24.4683C26.5869 24.384 26.6024 24.2935 26.5993 24.2027C26.6382 23.3929 26.3867 22.5963 25.8913 21.9602C25.7162 21.7318 25.489 21.5501 25.2293 21.4306C24.9695 21.3112 24.6851 21.2575 24.4004 21.2744C24.12 21.2984 23.8495 21.3912 23.6122 21.5448C23.3749 21.6984 23.1779 21.9083 23.0382 22.1562C22.7006 22.7648 22.5198 23.4499 22.5127 24.1483C22.5022 24.2402 22.5111 24.3335 22.5388 24.4217C22.5666 24.5099 22.6125 24.5911 22.6735 24.6599C22.7426 24.7364 22.8274 24.7965 22.922 24.836C23.0165 24.8755 23.1184 24.8934 23.2205 24.8885ZM24.1537 22.7113C24.238 22.6024 24.3615 22.532 24.4969 22.5154C24.5753 22.5128 24.6532 22.5293 24.7241 22.5634C24.795 22.5975 24.8568 22.6482 24.9045 22.7113C25.1519 22.9834 25.3126 23.3249 25.3658 23.6911H23.7568C23.7912 23.3254 23.929 22.9776 24.1537 22.6896V22.7113Z" fill="white"/>
<path d="M55.42 34.4462C55.4886 34.5159 55.5707 34.5703 55.6612 34.606C55.7517 34.6416 55.8486 34.6576 55.9455 34.6531H58.6914V34.2503L58.8416 34.6422H58.9703C59.0746 34.6366 59.1728 34.5906 59.2447 34.5136C59.3166 34.4366 59.3565 34.3345 59.3564 34.2285V33.9237C59.3564 33.7713 59.3564 33.6298 59.3564 33.4883C59.3215 32.7309 58.9986 32.0168 58.4554 31.4962C58.1516 31.1989 57.7459 31.0328 57.3238 31.0328C56.9017 31.0328 56.4961 31.1989 56.1922 31.4962C55.6058 32.1503 55.2874 33.0068 55.302 33.8911C55.2792 33.9866 55.278 34.0862 55.2984 34.1823C55.3188 34.2785 55.3604 34.3687 55.42 34.4462ZM56.9002 32.4868C56.9436 32.4278 56.9983 32.3781 57.0609 32.3407C57.1235 32.3033 57.1928 32.279 57.2648 32.2691C57.4108 32.2746 57.5491 32.337 57.651 32.4432C57.9131 32.7125 58.0727 33.0674 58.1015 33.4448H56.5033C56.5526 33.0963 56.6893 32.7664 56.9002 32.4868Z" fill="white"/>
<path d="M47.6438 26.8044H50.5291C50.6353 26.8015 50.7363 26.7567 50.8104 26.6795C50.8845 26.6022 50.926 26.4986 50.926 26.3907V26.1077C50.9367 25.9918 50.9367 25.8753 50.926 25.7594C50.9075 24.9719 50.5883 24.2225 50.0357 23.6693C49.7601 23.3812 49.3914 23.2039 48.9972 23.1699C48.603 23.1359 48.21 23.2475 47.8905 23.4843C47.5841 23.7119 47.3404 24.0155 47.1826 24.366C46.9628 24.867 46.8425 25.4071 46.8286 25.9553C46.8099 26.0661 46.8146 26.1797 46.8423 26.2885C46.87 26.3974 46.9202 26.499 46.9895 26.5867C47.0741 26.6726 47.1773 26.7371 47.291 26.7749C47.4047 26.8127 47.5256 26.8228 47.6438 26.8044ZM48.2659 25.0191C48.3291 24.858 48.4159 24.7076 48.5233 24.5728C48.5635 24.5283 48.6124 24.4927 48.6669 24.4684C48.7214 24.444 48.7802 24.4314 48.8397 24.4314C48.8993 24.4314 48.9581 24.444 49.0126 24.4684C49.067 24.4927 49.1159 24.5283 49.1561 24.5728C49.298 24.689 49.4148 24.8335 49.4994 24.9974C49.6135 25.1943 49.6866 25.4129 49.7139 25.6396H48.105C48.126 25.4254 48.1803 25.216 48.2659 25.0191Z" fill="white"/>
<path d="M17.74 26.7935H20.4215C20.5142 26.7971 20.6066 26.7817 20.6933 26.748C20.7799 26.7143 20.8589 26.6631 20.9256 26.5976C20.9871 26.5327 21.035 26.4559 21.0664 26.3717C21.0977 26.2875 21.1119 26.1976 21.1079 26.1077C21.1343 25.325 20.8958 24.5567 20.4322 23.9306C20.265 23.6893 20.0398 23.4954 19.778 23.3673C19.5162 23.2392 19.2265 23.1811 18.9364 23.1985C18.6462 23.216 18.3653 23.3084 18.1202 23.467C17.8752 23.6256 17.6741 23.8452 17.5362 24.1048C17.2104 24.7019 17.0336 25.3709 17.0213 26.0533C17.011 26.1511 17.021 26.2501 17.0506 26.3438C17.0801 26.4376 17.1286 26.524 17.1929 26.5976C17.2653 26.6676 17.3515 26.7213 17.4458 26.755C17.54 26.7888 17.6403 26.8019 17.74 26.7935ZM18.5766 24.7035C18.6184 24.6234 18.678 24.5542 18.7505 24.5013C18.8231 24.4484 18.9067 24.4133 18.9949 24.3987C19.0834 24.4013 19.1703 24.423 19.2498 24.4624C19.3293 24.5019 19.3997 24.5581 19.4561 24.6273C19.5142 24.6925 19.568 24.7616 19.617 24.8341C19.7415 25.0652 19.8284 25.3151 19.8744 25.5743H18.2655C18.3065 25.2648 18.4125 24.9678 18.5766 24.7035Z" fill="white"/>
<path d="M6.18745 39.0181H8.83677C8.9312 39.0226 9.02552 39.0075 9.11403 38.9738C9.20253 38.9401 9.28336 38.8886 9.3516 38.8222C9.41922 38.7545 9.47152 38.6727 9.50486 38.5825C9.5382 38.4923 9.55177 38.3957 9.54466 38.2996C9.57012 37.6436 9.41009 36.994 9.08345 36.4273C8.94919 36.1662 8.75742 35.94 8.52303 35.7663C8.28864 35.5926 8.01793 35.4761 7.73196 35.4258C7.3471 35.381 6.95825 35.4626 6.62238 35.6585C6.28651 35.8545 6.02129 36.1543 5.86565 36.5144C5.6214 37.044 5.48287 37.6175 5.45806 38.2017C5.44493 38.2997 5.45354 38.3993 5.48323 38.4935C5.51292 38.5877 5.56295 38.674 5.62968 38.746C5.83347 39.029 6.10164 38.9746 6.18745 39.0181ZM7.15278 36.841C7.24714 36.7428 7.37233 36.6812 7.50673 36.6668C7.59436 36.6796 7.67853 36.7103 7.75413 36.7571C7.82972 36.8039 7.89515 36.8657 7.9465 36.9389C8.14842 37.1999 8.2747 37.5127 8.31118 37.8425H6.71301C6.75404 37.4575 6.90715 37.0937 7.15278 36.7974V36.841Z" fill="white"/>
<path d="M35.952 24.0285H38.6443C38.7333 24.0331 38.8223 24.0189 38.9056 23.9867C38.9889 23.9546 39.0647 23.9052 39.1283 23.8418C39.1918 23.7783 39.2416 23.7022 39.2746 23.6181C39.3077 23.5341 39.3231 23.444 39.32 23.3536C39.3535 22.5783 39.1349 21.8133 38.6979 21.1765C38.5373 20.9348 38.3221 20.7356 38.0702 20.5955C37.8183 20.4553 37.5371 20.3784 37.2499 20.371C36.9657 20.3782 36.6874 20.4553 36.439 20.5956C36.1905 20.7359 35.9793 20.9352 35.8233 21.1765C35.4483 21.8001 35.2446 22.5143 35.2334 23.2448C35.2261 23.3391 35.2376 23.4339 35.2671 23.5236C35.2965 23.6134 35.3434 23.6963 35.405 23.7673C35.4738 23.8464 35.5578 23.9104 35.6519 23.9554C35.7459 24.0003 35.8481 24.0252 35.952 24.0285ZM36.4991 22.7331C36.5308 22.4245 36.6459 22.1307 36.8316 21.8841C36.872 21.8168 36.9267 21.7594 36.9916 21.7161C37.0565 21.6728 37.1301 21.6447 37.207 21.6337C37.284 21.6337 37.36 21.6502 37.4303 21.6821C37.5005 21.714 37.5633 21.7605 37.6146 21.8187C37.8783 22.088 38.0415 22.4421 38.0758 22.8202H36.4776C36.4776 22.8202 36.4883 22.7549 36.4991 22.7331Z" fill="white"/>
<path d="M51.354 30.4075C51.4265 30.4788 51.5121 30.5347 51.606 30.5721C51.6999 30.6095 51.8001 30.6275 51.901 30.6252H54.5718C54.664 30.6323 54.7565 30.6194 54.8434 30.5875C54.9303 30.5556 55.0095 30.5054 55.0759 30.4402C55.1353 30.3783 55.182 30.305 55.2133 30.2247C55.2446 30.1443 55.2599 30.0585 55.2582 29.9721C55.3165 29.1517 55.0675 28.3392 54.5611 27.697C54.3922 27.4682 54.1698 27.2858 53.9139 27.1662C53.6581 27.0466 53.377 26.9935 53.0959 27.0119C52.8148 27.0303 52.5427 27.1194 52.3041 27.2714C52.0655 27.4233 51.868 27.6332 51.7294 27.882C51.3696 28.4822 51.1803 29.1716 51.1824 29.8741C51.173 29.9702 51.1834 30.0673 51.2129 30.1592C51.2425 30.251 51.2905 30.3355 51.354 30.4075ZM52.8878 28.3501C52.93 28.3032 52.9813 28.2658 53.0386 28.2402C53.0958 28.2146 53.1578 28.2014 53.2203 28.2014C53.2829 28.2014 53.3448 28.2146 53.402 28.2402C53.4592 28.2658 53.5106 28.3032 53.5528 28.3501C53.8278 28.6125 53.9961 28.9697 54.0248 29.3516H52.4266C52.4676 28.9754 52.6297 28.6233 52.8878 28.3501Z" fill="white"/>
<path d="M28.8734 24.0285H31.5334C31.6237 24.036 31.7146 24.0244 31.8003 23.9945C31.886 23.9645 31.9646 23.9168 32.0311 23.8543C32.0977 23.7919 32.1508 23.7162 32.1869 23.6318C32.2231 23.5475 32.2416 23.4564 32.2413 23.3645C32.2954 22.5067 32.014 21.6618 31.4583 21.0131C31.1785 20.674 30.778 20.4609 30.3441 20.4201C29.9101 20.3793 29.4779 20.5142 29.1415 20.7955C28.9201 20.996 28.7318 21.2311 28.5837 21.4921C28.3017 22.0475 28.1546 22.6634 28.1547 23.2883C28.1448 23.3819 28.1539 23.4766 28.1816 23.5665C28.2093 23.6564 28.2549 23.7395 28.3156 23.8108C28.3877 23.8855 28.4749 23.9437 28.5711 23.9812C28.6673 24.0188 28.7704 24.0349 28.8734 24.0285ZM29.6886 21.9711C29.7313 21.8853 29.7934 21.811 29.8698 21.7543C29.9463 21.6975 30.0348 21.6599 30.1283 21.6445C30.222 21.641 30.315 21.6609 30.3993 21.7027C30.4835 21.7445 30.5562 21.8068 30.611 21.884C30.825 22.1534 30.9623 22.4772 31.0078 22.8202H29.3989C29.4394 22.5206 29.5379 22.232 29.6886 21.9711Z" fill="white"/>
<path d="M44.2321 46.7798V46.4859C44.2321 46.3008 44.2321 46.1048 44.2321 45.9307C44.2321 45.4952 44.2321 45.049 44.2321 44.6026C44.2106 44.3654 44.1036 44.1445 43.9318 43.9822C43.7094 43.795 43.4267 43.6981 43.1381 43.71C42.8911 43.7285 42.6595 43.8386 42.4874 44.0193C42.3153 44.2 42.2148 44.4386 42.2049 44.6897C42.2049 44.853 42.2049 45.0163 42.2049 45.1687V46.7798H44.2321Z" fill="white"/>
<path d="M33.8922 46.4749V46.7906H35.898V44.7877C35.9016 44.6433 35.8769 44.4997 35.8254 44.3652C35.7738 44.2306 35.6965 44.1077 35.5977 44.0038C35.3999 43.8159 35.1392 43.7109 34.8683 43.71C34.5951 43.7266 34.3386 43.8487 34.1511 44.051C33.9637 44.2534 33.8595 44.5208 33.86 44.7985C33.86 45.2557 33.86 45.7129 33.86 46.1593V46.3225C33.866 46.3742 33.8768 46.4253 33.8922 46.4749Z" fill="white"/>
<path d="M41.4009 46.7798V46.4859C41.4009 46.3008 41.4009 46.1049 41.4009 45.9307C41.4009 45.4953 41.4009 45.049 41.4009 44.6027C41.3794 44.3654 41.2724 44.1445 41.1005 43.9822C40.8886 43.7916 40.611 43.6937 40.3283 43.71C40.0803 43.7342 39.8483 43.8451 39.6722 44.0239C39.496 44.2027 39.3867 44.438 39.3629 44.6897V46.7798H41.4009Z" fill="white"/>
<path d="M31.0403 46.7798H33.0675V45.9198C33.0675 45.4844 33.0675 45.0816 33.0675 44.6571C33.0495 44.4083 32.9425 44.1747 32.7667 44.0003C32.5909 43.8258 32.3584 43.7226 32.1129 43.71C31.8302 43.6937 31.5525 43.7916 31.3406 43.9822C31.2529 44.0599 31.182 44.1551 31.1321 44.2618C31.0823 44.3686 31.0547 44.4846 31.051 44.6027C31.051 45.0272 31.051 45.4517 31.051 45.9198L31.0403 46.7798Z" fill="white"/>
<path d="M36.7464 46.4314H36.6177V46.7798H38.6342V45.9416C38.6342 45.5388 38.6342 45.1577 38.6342 44.755C38.6464 44.6135 38.6289 44.4711 38.5828 44.3371C38.5367 44.203 38.463 44.0804 38.3666 43.9775C38.2703 43.8745 38.1534 43.7936 38.0239 43.74C37.8944 43.6863 37.755 43.6612 37.6152 43.6664C37.342 43.6831 37.0855 43.8051 36.8981 44.0075C36.7106 44.2098 36.6065 44.4772 36.607 44.755V46.2355C36.607 46.2355 36.607 46.3226 36.607 46.3661L36.7464 46.4314Z" fill="white"/>
<path d="M44.1142 48.2493H31.1678C31.0764 48.2432 30.9858 48.2694 30.9112 48.3234C30.8367 48.3774 30.7828 48.4559 30.7588 48.5457C30.7348 48.6354 30.7422 48.7307 30.7796 48.8156C30.817 48.9005 30.8822 48.9696 30.9641 49.0113L31.4896 49.316C31.6505 49.414 31.6934 49.4358 33.6992 49.4685H41.7758C43.8138 49.4685 43.8352 49.4685 44.0176 49.2725L44.3608 48.9895C44.426 48.936 44.4733 48.8633 44.4963 48.7815C44.5194 48.6997 44.517 48.6127 44.4895 48.5323C44.4646 48.4509 44.4147 48.3796 44.3473 48.3287C44.2798 48.2779 44.1982 48.25 44.1142 48.2493Z" fill="white"/>
<path d="M9.22227 8.9628C9.50548 9.19095 9.82972 9.36104 10.1769 9.46357C10.5248 9.56891 10.8864 9.62031 11.2495 9.61599C11.7926 9.64318 12.334 9.53475 12.8262 9.30026C13.196 9.1204 13.5137 8.8467 13.7486 8.50562C13.961 8.20537 14.1007 7.85854 14.1562 7.49326C14.2138 7.18097 14.2425 6.86392 14.242 6.54621V0.559082H11.9467V6.45911C11.9467 6.61151 11.9467 6.75306 11.9467 6.90546C11.9425 7.03337 11.9133 7.15913 11.8609 7.27554C11.8253 7.37261 11.7569 7.45368 11.6678 7.50416C11.5355 7.56104 11.3932 7.59033 11.2495 7.59033C11.1058 7.59033 10.9635 7.56104 10.8312 7.50416C10.7396 7.45635 10.6619 7.38504 10.6059 7.29733C10.5357 7.19358 10.4915 7.074 10.4772 6.94898C10.4595 6.77527 10.4595 6.60019 10.4772 6.42649V5.7951H8.33202V6.77484C8.32146 7.21721 8.40944 7.6563 8.58944 8.05934C8.73216 8.40418 8.94826 8.71267 9.22227 8.9628Z" fill="white"/>
<path d="M20.6352 9.61601C21.626 9.67304 22.603 9.35932 23.3811 8.73427C23.7373 8.3843 24.0132 7.95908 24.1893 7.48877C24.3654 7.01845 24.4373 6.51455 24.4001 6.01284V0.569998H22.0939V6.01284C22.1294 6.44669 22.0198 6.88001 21.7829 7.24293C21.6231 7.37756 21.438 7.47785 21.2389 7.53773C21.0398 7.59761 20.8308 7.61584 20.6245 7.59128C20.3574 7.60355 20.0907 7.55906 19.8415 7.46066C19.6761 7.38099 19.5297 7.26579 19.4124 7.12314C19.3138 6.98002 19.2479 6.81646 19.2194 6.64423C19.1798 6.43626 19.1618 6.22463 19.1658 6.01284V0.569998H16.8596V6.01284C16.8217 6.51366 16.8924 7.01682 17.0666 7.48697C17.2407 7.95713 17.5143 8.38287 17.8679 8.73427C18.6502 9.36724 19.6368 9.68161 20.6352 9.61601Z" fill="white"/>
<path d="M29.5921 4.39085L32.6812 9.43092H34.8693V0.559082H32.6812V5.61004L29.5921 0.559082H27.4147V9.43092H29.5921V4.39085Z" fill="white"/>
<path d="M40.2098 0.559082H37.9145V9.43092H40.2098V0.559082Z" fill="white"/>
<path d="M45.5525 6.58976L46.314 5.80598L48.7059 9.43092H51.5805L47.8907 4.14047L51.3874 0.559082H48.4378L45.5525 3.6615V0.559082H43.2571V9.43092H45.5525V6.58976Z" fill="white"/>
<path d="M56.2888 9.61601C57.2795 9.67304 58.2565 9.35932 59.0346 8.73427C59.3908 8.3843 59.6667 7.95908 59.8428 7.48877C60.0189 7.01845 60.0909 6.51455 60.0536 6.01284V0.569998H57.7582V6.01284C57.7936 6.44669 57.6841 6.88001 57.4472 7.24293C57.2874 7.37756 57.1023 7.47785 56.9032 7.53773C56.704 7.59761 56.495 7.61584 56.2888 7.59128C56.0217 7.60355 55.755 7.55906 55.5058 7.46066C55.3422 7.37803 55.1964 7.26327 55.0767 7.12314C54.9781 6.98002 54.9122 6.81646 54.8837 6.64423C54.8494 6.43554 54.8315 6.22441 54.8301 6.01284V0.569998H52.5347V6.01284C52.4946 6.5129 52.5632 7.01575 52.7356 7.48597C52.9079 7.9562 53.1799 8.38233 53.5322 8.73427C54.3126 9.36279 55.2943 9.67678 56.2888 9.61601Z" fill="white"/>
</svg>
