<svg width="117" height="150" viewBox="0 0 117 150" fill="none" xmlns="http://www.w3.org/2000/svg">
<path d="M69.0766 25.5922V49.2151L45.6125 25.8012L27.5633 25.7415V90.9957H45.6125V48.8866L88.299 90.9957V25.5922H69.0766Z" fill="white"/>
<path d="M0.0078125 0.207275V117.127H74.1L59.9313 103.031H14.1765V14.3034H101.926V111.572L93.2923 103.031H73.1073L87.3962 117.127H87.4263L116.095 145.409V0.207275H0.0078125Z" fill="white"/>
<path d="M15.9212 132.716L6.92669 123.757L0.0078125 123.727V148.754H6.92669V132.597L23.2913 148.754V123.667H15.9212V132.716Z" fill="white"/>
<path d="M87.4566 124.116C84.2131 122.666 80.5224 122.553 77.1949 123.801C73.8673 125.05 71.1748 127.558 69.7082 130.776C69.3998 128.805 68.3891 127.009 66.8598 125.716C65.3306 124.423 63.3845 123.717 61.3755 123.728L52.5915 123.698H31.4438L24.4949 123.668V148.754H31.4438V130.208H36.3472L36.3171 148.754H43.236V130.208H48.2898V148.754H55.2688L55.2387 130.238H59.4202C59.7757 130.242 60.127 130.316 60.454 130.454C60.7809 130.593 61.0772 130.794 61.3258 131.047C61.5744 131.299 61.7705 131.597 61.9029 131.925C62.0353 132.253 62.1014 132.603 62.0975 132.956C62.0975 134.688 60.5031 135.913 55.329 137.824L66.339 148.844H74.4612L65.226 139.735L65.8878 139.317C66.9415 138.629 67.8423 137.735 68.535 136.689C68.613 139.063 69.3293 141.374 70.6097 143.38C71.8901 145.387 73.6879 147.018 75.8167 148.102C77.9455 149.187 80.3279 149.687 82.7167 149.549C85.1056 149.412 87.4139 148.643 89.4025 147.322C91.391 146 92.9873 144.175 94.0258 142.035C95.0644 139.895 95.5074 137.518 95.3089 135.15C95.1104 132.783 94.2776 130.511 92.8969 128.571C91.5162 126.631 89.6379 125.093 87.4566 124.116ZM81.9817 142.363C80.7561 142.363 79.558 142.002 78.5389 141.326C77.5198 140.65 76.7255 139.69 76.2565 138.566C75.7875 137.441 75.6648 136.204 75.9039 135.011C76.143 133.818 76.7332 132.721 77.5998 131.861C78.4665 131.001 79.5707 130.415 80.7728 130.177C81.9748 129.94 83.2208 130.062 84.3532 130.527C85.4855 130.993 86.4533 131.782 87.1342 132.793C87.8152 133.805 88.1786 134.994 88.1786 136.211C88.1798 137.019 88.0203 137.82 87.7093 138.567C87.3983 139.314 86.9419 139.993 86.3662 140.564C85.7906 141.136 85.1069 141.589 84.3546 141.897C83.6022 142.206 82.7958 142.364 81.9817 142.363Z" fill="white"/>
</svg>
