<svg width="131" height="150" viewBox="0 0 131 150" fill="none" xmlns="http://www.w3.org/2000/svg">
<path fill-rule="evenodd" clip-rule="evenodd" d="M48.8846 71.9901L38.7534 81.9663L63.933 103.861L48.8846 71.9901Z" fill="white"/>
<path fill-rule="evenodd" clip-rule="evenodd" d="M80.4055 112.331L99.3387 80.3916L66.1271 15.8165L32.9097 80.3916L51.8487 112.331H80.4055ZM93.5258 81.9662L68.3176 103.844L83.3661 71.9727L93.5258 81.9662ZM66.1442 19.8277V26.4938L80.4055 73.3864L66.1442 103.355V110.705L53.1892 110.676L35.106 80.087L66.1442 19.8277Z" fill="white"/>
<path fill-rule="evenodd" clip-rule="evenodd" d="M66.1281 103.355V26.4941L51.8554 73.3867L66.1281 103.355Z" fill="white"/>
<path fill-rule="evenodd" clip-rule="evenodd" d="M65.9689 131.957C78.8328 131.957 91.4078 128.114 102.103 120.913C112.798 113.713 121.134 103.479 126.054 91.5053C130.975 79.5319 132.26 66.3573 129.747 53.648C127.234 40.9387 121.036 29.2657 111.937 20.1056C102.837 10.9454 91.2458 4.70965 78.6279 2.18706C66.01 -0.335531 52.933 0.968369 41.0508 5.93385C29.1687 10.8993 19.0154 19.3033 11.8751 30.0827C4.73485 40.8621 0.928489 53.5326 0.937516 66.4916C0.949614 83.8584 7.80645 100.51 20.0009 112.786C32.1953 125.062 48.7294 131.957 65.9689 131.957ZM65.9689 7.82985C77.477 7.82985 88.7267 11.2676 98.2953 17.7084C107.864 24.1492 115.322 33.3037 119.726 44.0143C124.13 54.725 125.282 66.5107 123.037 77.881C120.792 89.2514 115.25 99.6957 107.113 107.893C98.9751 116.091 88.6074 121.673 77.3204 123.935C66.0335 126.197 54.3342 125.036 43.7021 120.6C33.07 116.163 23.9826 108.65 17.589 99.0108C11.1955 89.3715 7.78292 78.0387 7.78292 66.4456C7.78595 50.9017 13.9176 35.9955 24.8293 25.0054C35.7409 14.0153 50.539 7.84134 65.9689 7.84134V7.82985Z" fill="white"/>
<path fill-rule="evenodd" clip-rule="evenodd" d="M109.653 144.939L105.603 137.278H99.8531V149.415H103.475L103.544 140.853L108.279 149.409H111.131L115.729 141.14C115.791 141.051 115.861 140.968 115.94 140.893V149.398H119.574V137.278H113.801C113.795 137.353 110.19 144.554 109.653 144.939Z" fill="white"/>
<path fill-rule="evenodd" clip-rule="evenodd" d="M42.9286 137.174H36.1858C33.0312 137.174 31.2229 138.295 31.2229 141.501C31.2229 145.863 30.4756 149.547 36.0546 149.547H42.9286C46.0318 149.547 47.823 148.443 47.823 145.254C47.823 140.691 48.5703 137.174 42.9286 137.174ZM43.9953 144.07C43.9269 146.943 42.6434 146.409 38.7814 146.409C35.3587 146.409 34.9423 146.507 35.0506 142.645C35.0906 141.323 35.3073 140.628 36.5452 140.346C37.7612 140.211 38.9864 140.18 40.2075 140.254C43.5789 140.266 44.0923 140.26 43.9953 144.07Z" fill="white"/>
<path fill-rule="evenodd" clip-rule="evenodd" d="M92.7191 137.174H85.9764C80.2262 137.174 81.0477 140.737 81.0477 145.409C81.0477 148.42 82.8903 149.57 85.8452 149.57H92.6906C96.1133 149.57 97.6193 148.34 97.6193 144.886C97.6478 140.559 98.2354 137.174 92.7191 137.174ZM93.7916 144.11C93.7916 146.984 92.4681 146.449 88.6974 146.449C87.6649 146.449 86.0905 146.69 85.3888 145.995C84.6871 145.3 84.8526 143.742 84.8754 142.674C84.8754 141.358 85.1777 140.668 86.3358 140.375C87.2143 140.168 88.9883 140.283 89.998 140.283C93.6832 140.266 93.8258 140.421 93.7916 144.07V144.11Z" fill="white"/>
<path fill-rule="evenodd" clip-rule="evenodd" d="M73.784 146.398C72.7743 146.455 71.6961 146.398 70.675 146.398C67.8228 146.398 67.1667 146.553 67.1725 143.524C67.1725 140.714 67.3949 140.237 70.2871 140.237C71.3482 140.237 72.4777 140.203 73.533 140.237C74.7081 140.283 75.2044 140.467 75.2443 141.697L78.9694 141.663C78.9694 139.278 78.764 138.031 76.6362 137.433C74.9534 136.956 72.1867 137.105 70.3156 137.105C63.881 137.105 63.379 137.887 63.379 143.513C63.379 145.927 63.2478 147.61 64.8736 148.685C66.351 149.685 68.7469 149.472 70.7035 149.472C76.9785 149.472 79.1348 150.127 79.1348 144.657L75.4041 144.691C75.29 146.059 75.096 146.323 73.784 146.398Z" fill="white"/>
<path fill-rule="evenodd" clip-rule="evenodd" d="M21.3544 146.139L16.7908 137.278H12.655L19.0954 149.398H23.7674C24.1154 148.467 24.9083 147.317 25.3761 146.346C26.0891 144.921 29.9682 137.927 30.1793 137.272H26.0378C25.8838 137.841 21.6396 145.881 21.3544 146.139Z" fill="white"/>
<path fill-rule="evenodd" clip-rule="evenodd" d="M53.7576 146.289L53.7633 137.278H50.0325V149.415L62.0576 149.427V146.335L61.6013 146.289H53.7576Z" fill="white"/>
</svg>
